<svg width="67" height="46" viewBox="0 0 67 46" fill="none" xmlns="http://www.w3.org/2000/svg">
                  <path d="M42.9459 6.84479C49.177 6.80268 52.5176 15.8479 53.5507 20.9205C55.2592 29.3096 50.2585 31.6005 43.396 33.8261C39.1803 35.1934 34.8568 36.3663 30.5458 37.3905C24.8638 38.7403 20.3494 40.4166 16.8068 34.2694C15.1122 31.329 12.6431 24.3491 12.7308 20.9908C12.8747 15.4808 18.1178 13.7224 22.4724 12.1574C26.5146 10.7048 30.8681 9.40255 35.0298 8.33766C37.3319 7.74863 40.614 6.86054 42.9459 6.84479Z" fill="#A3AAE0"></path>
                  <path d="M65.7531 15.5735C66.3277 17.8034 64.1717 18.6808 63.9344 20.597C63.7192 22.3348 65.3744 25.1674 64.7607 26.5088C63.7935 28.6232 61.4782 27.3555 60.0875 26.5141C59.1094 25.9224 57.9821 25.1962 57.0468 24.55C56.5658 24.2177 54.9729 23.1286 54.7395 22.7178C54.6107 22.4912 54.637 21.6325 54.5254 21.3307C55.4136 21.4304 56.297 21.592 57.1763 21.7494C57.5507 21.8164 58.622 22.2127 58.8671 21.8781C59.0237 21.6643 58.9136 21.1855 58.6086 21.1569L54.383 20.3838C54.3041 20.3263 54.2805 20.2396 54.2483 20.1542C54.1346 19.8535 53.9172 18.9316 53.8545 18.5911C53.8371 18.496 53.7629 18.2701 53.8387 18.1978C56.068 17.6388 58.2794 16.9928 60.5555 16.6449C60.9788 16.5069 61.0399 15.9804 60.5837 15.8278C60.3785 15.7592 58.517 16.1298 58.1544 16.2048C56.6257 16.5212 55.1264 17.0289 53.6058 17.3431L53.4852 17.231L52.5452 14.7327C52.5068 14.4219 53.124 14.0268 53.3753 13.822C54.7168 12.7285 56.1692 11.7566 57.5141 10.6645C57.8773 10.2366 57.4826 9.71113 56.9968 9.96681C55.4186 11.2673 53.6879 12.3748 52.1712 13.749C52.0963 13.7567 51.4969 12.4828 51.4868 12.4082C51.4695 12.2823 51.5665 12.0606 51.614 11.932C52.5359 9.43537 54.9896 3.61715 56.7743 1.88224C58.1928 0.503284 59.3162 0.862303 59.8021 2.76008C60.4187 5.16797 59.5262 7.65765 60.8991 10.0512C62.1706 12.2678 65.1451 13.2139 65.7531 15.5735Z" fill="#CCD0EF"></path>
                  <path d="M12.1987 24.042C12.3013 24.4163 12.3799 24.8359 12.4227 25.2249C11.9387 25.0624 11.3584 25.0384 10.8393 24.9947C9.99771 24.9239 8.73026 24.7747 7.92143 24.827C7.524 24.8528 7.09654 24.9132 7.25657 25.4353C7.32917 25.6721 7.43761 25.6729 7.65174 25.7177C8.48312 25.8917 9.94476 25.7813 10.8706 25.8618C11.4581 25.9129 12.0513 25.9971 12.6353 26.0841L12.7503 26.2135L13.4492 28.3661L13.4016 28.451C11.1487 29.1311 8.94606 29.9682 6.66746 30.5633C6.21252 30.7959 6.36105 31.4056 6.8771 31.4248C9.14789 30.804 11.365 30.0074 13.5993 29.2705L13.7188 29.3625L14.5527 31.7745C12.9508 33.11 11.4309 34.5651 9.75233 35.816C9.57397 36.1048 9.60753 36.3747 9.96001 36.4933C10.2909 36.6046 10.6109 36.2554 10.8595 36.0672C11.6576 35.4628 12.4492 34.7699 13.1975 34.1037C13.4852 33.8477 14.6633 32.6099 14.8359 32.5418C14.9383 32.5015 14.9539 32.5352 15.0005 32.6185C15.0743 32.7507 15.4956 33.7367 15.4861 33.8134C15.4603 34.0234 14.4885 35.6247 14.2952 35.975C13.1639 38.0252 12.1459 40.45 10.9162 42.3796C10.145 43.5897 8.92892 45.2618 7.51668 43.7637C6.35827 42.5349 6.74981 38.6672 6.0772 36.8296C5.04495 34.0093 1.23848 33.4343 1.05928 30.0384C0.954452 28.0519 2.55308 27.7995 3.06716 26.2291C3.58411 24.6499 2.31381 23.0462 1.99289 21.5732C1.70084 20.2328 2.20161 19.1021 3.67807 18.983C5.89031 18.8045 9.03589 21.4763 10.7947 22.7138C11.1331 22.9519 11.8251 23.2463 12.0738 23.5789C12.1174 23.6372 12.1683 23.9314 12.1987 24.042Z" fill="#CCD0EF"></path>
                  <path d="M58.7682 0.129149C59.5126 0.290971 60.0074 0.753558 60.3353 1.38126C60.6616 2.00583 60.8253 2.79683 60.9139 3.62567C61.0025 4.45492 61.0164 5.33127 61.0394 6.12856C61.0626 6.92962 61.0949 7.64724 61.2165 8.16989C61.6424 10 62.9672 11.0175 64.2379 12.0763C65.5034 13.1309 66.7123 14.2263 66.8097 16.2072C66.8505 17.0368 66.6468 17.5986 66.3385 18.1096C66.1856 18.363 66.0064 18.6048 65.8216 18.8573C65.6362 19.1107 65.4437 19.3772 65.259 19.6857C64.9282 20.2383 64.8623 20.8304 64.9304 21.4518C64.9989 22.0758 65.2016 22.723 65.4038 23.3846C65.8049 24.6962 66.2078 26.0695 65.4373 27.3207C64.9595 28.0965 64.3242 28.48 63.6089 28.5904C62.8979 28.7 62.1151 28.539 61.3381 28.2448C59.785 27.6568 58.2203 26.52 57.2407 25.8498C56.8247 25.5651 56.4224 25.2589 56.0217 24.9544C55.6609 24.6801 55.3002 24.4088 54.9325 24.15C54.906 25.1708 54.7943 26.199 54.4247 27.1712C53.4834 29.6478 51.7207 31.2518 49.6329 32.4132C47.5475 33.5732 45.1311 34.2943 42.8791 35.0022C39.019 36.2156 35.0243 37.3038 31.0908 38.2482C29.6448 38.5954 27.73 39.1131 25.8259 39.4032C23.9242 39.693 22.0151 39.7587 20.5818 39.1926C18.5309 38.3824 17.0942 36.7201 16.0071 34.883C15.9501 34.9814 15.8957 35.0829 15.8425 35.1869C15.7687 35.331 15.6945 35.4797 15.6123 35.6216C14.661 37.2645 13.8709 38.9469 12.9789 40.6411C12.5405 41.4739 11.931 42.763 11.1372 43.7702C10.345 44.7753 9.34432 45.5303 8.12189 45.2366C6.66608 44.8868 6.10945 43.5432 5.84924 42.0619C5.71864 41.3184 5.66065 40.5296 5.60431 39.797C5.54777 39.0617 5.49324 38.3858 5.37021 37.8582C5.06846 36.5649 4.42693 35.8578 3.67482 35.2393C2.9245 34.6222 2.04351 34.0802 1.30803 33.1355C0.883166 32.5897 0.505076 31.8553 0.284531 31.0866C0.064245 30.3186 -0.000924226 29.5081 0.209903 28.8144C0.377308 28.2639 0.692544 27.8402 1.02852 27.4456C1.36719 27.0478 1.72105 26.6845 1.98999 26.2403C2.34087 25.6606 2.19403 24.8993 1.90179 24.0955C1.75669 23.6964 1.57923 23.2965 1.4178 22.9108C1.25733 22.5274 1.112 22.1577 1.03617 21.8277C0.684199 20.2955 1.17834 19.1643 2.10282 18.5482C3.02185 17.9358 4.35027 17.8434 5.65222 18.3487C7.54199 19.0823 9.16325 20.3697 10.813 21.4747C10.8571 21.5042 10.9519 21.5788 11.065 21.6666C11.1803 21.756 11.3184 21.8631 11.4548 21.9617C11.5918 22.0608 11.7245 22.1498 11.8272 22.2046C11.8603 22.2223 11.8897 22.2314 11.9124 22.2401C11.911 22.2329 11.91 22.2248 11.9083 22.2167C11.8947 22.1522 11.8734 22.0672 11.8511 21.976C11.8075 21.7985 11.7556 21.5898 11.7467 21.4934C11.4675 18.4156 12.8879 16.2766 14.9507 14.7041C17.0093 13.135 19.7141 12.1234 22.0206 11.2936C26.9305 9.52708 32.0233 8.07594 37.0907 6.91676C38.4258 6.61136 39.8676 6.20352 41.3142 6.00077C42.7632 5.79773 44.2294 5.79769 45.62 6.31363C47.9938 7.19446 49.5635 9.08792 50.8709 11.1356C51.6806 9.31101 52.4223 7.43776 53.3053 5.63804C53.739 4.75414 54.472 3.24745 55.4053 2.0283C55.872 1.41863 56.3923 0.876153 56.9546 0.51988C57.5179 0.163002 58.1279 -0.00989906 58.7682 0.129149ZM5.44667 19.3928C4.81917 19.1504 4.22073 19.0206 3.68456 19.0638C2.96795 19.1216 2.5002 19.4232 2.24268 19.8615C1.98311 20.3034 1.92865 20.8984 2.07194 21.5561C2.1506 21.9171 2.28805 22.2882 2.44379 22.6693C2.59855 23.0481 2.77327 23.4406 2.92028 23.833C3.21478 24.6193 3.41141 25.4377 3.14394 26.2548C2.88006 27.0604 2.33444 27.533 1.89173 28.0316C1.66864 28.2828 1.46957 28.5424 1.33142 28.8583C1.19367 29.1735 1.11467 29.5494 1.14026 30.0343C1.22797 31.6957 2.20005 32.6689 3.30057 33.5876C4.39477 34.501 5.62788 35.3657 6.15351 36.8012C6.32507 37.27 6.42721 37.865 6.50333 38.5064C6.57939 39.1474 6.6309 39.8457 6.69609 40.5176C6.76153 41.192 6.84137 41.8435 6.9766 42.4015C7.11222 42.961 7.30094 43.416 7.57559 43.7076C7.91946 44.0723 8.24369 44.2364 8.54365 44.2688C8.84376 44.3012 9.13365 44.2037 9.41162 44.0198C9.9721 43.6486 10.461 42.9426 10.8477 42.3358C11.46 41.375 12.0205 40.29 12.57 39.1866C13.1188 38.0845 13.6578 36.9625 14.2245 35.9355C14.3217 35.7594 14.6143 35.2683 14.8828 34.801C15.0178 34.5662 15.1472 34.3367 15.2442 34.1529C15.2928 34.0609 15.3336 33.9812 15.362 33.9187C15.3762 33.8876 15.3867 33.8614 15.3944 33.8408C15.4003 33.8245 15.4023 33.8134 15.4036 33.8077L15.4038 33.8067C15.4019 33.7982 15.399 33.7858 15.3939 33.7695C15.3838 33.7371 15.3677 33.6936 15.3483 33.6415C15.3095 33.5376 15.256 33.4042 15.1996 33.2684C15.0856 32.9943 14.964 32.7194 14.9298 32.6582C14.9174 32.636 14.9099 32.622 14.9027 32.6114C14.9016 32.6097 14.9003 32.608 14.8995 32.6069C14.8933 32.608 14.8828 32.6108 14.8661 32.6173C14.8662 32.6173 14.8635 32.6182 14.8586 32.6211C14.8538 32.624 14.8474 32.6284 14.8398 32.6339C14.8239 32.6451 14.8036 32.6609 14.7798 32.6806C14.7323 32.72 14.6723 32.7738 14.6031 32.8381C14.465 32.9667 14.2936 33.1352 14.1177 33.31C13.768 33.6576 13.3973 34.0347 13.2513 34.1647C12.5031 34.8307 11.7098 35.5256 10.909 36.1321C10.8486 36.1778 10.7844 36.2322 10.7123 36.2913C10.6416 36.3492 10.5646 36.4102 10.4841 36.4613C10.3252 36.5624 10.1351 36.6381 9.93441 36.5707C9.74115 36.5057 9.6174 36.3918 9.57836 36.2385C9.54064 36.0901 9.58809 35.9271 9.68283 35.7736L9.6919 35.7602L9.70421 35.7513C11.3661 34.5128 12.8649 33.0781 14.4571 31.7474L13.6489 29.4116L13.583 29.3605C11.3654 30.0927 9.15823 30.886 6.89891 31.5038L6.88657 31.5067L6.87388 31.5057C6.58109 31.4946 6.38259 31.314 6.3289 31.0936C6.27504 30.8723 6.37041 30.6243 6.63054 30.4913L6.63822 30.4866L6.64737 30.4851C8.91524 29.8928 11.0959 29.0628 13.3467 28.3818L13.3606 28.3573L12.6775 26.2524L12.5944 26.1599C12.02 26.0745 11.4389 25.9928 10.8638 25.9428C10.4052 25.9029 9.81374 25.91 9.22579 25.9058C8.64206 25.9016 8.05989 25.8862 7.63495 25.7972C7.58479 25.7868 7.53334 25.7775 7.49044 25.7671C7.44627 25.7563 7.40231 25.7425 7.36158 25.7196C7.27396 25.6704 7.21882 25.5887 7.17901 25.4588C7.13626 25.3192 7.12963 25.2005 7.15949 25.1006C7.19001 24.9986 7.25594 24.9263 7.33803 24.8761C7.41829 24.827 7.51476 24.7981 7.61267 24.7798C7.71104 24.7615 7.81612 24.752 7.91591 24.7455C8.73274 24.6926 10.0109 24.844 10.8462 24.9143C11.3174 24.9539 11.8566 24.9789 12.3258 25.1117C12.2814 24.7624 12.2113 24.3948 12.1205 24.0639C12.1049 24.0069 12.0835 23.8992 12.0626 23.8092C12.0517 23.7624 12.0399 23.7191 12.0293 23.6842C12.024 23.6668 12.0197 23.6521 12.0154 23.6414C12.011 23.6306 12.0084 23.6271 12.0087 23.6275C11.8955 23.4761 11.6745 23.3264 11.4268 23.1808C11.1872 23.0398 10.9209 22.9022 10.7483 22.7808C9.8628 22.1578 8.64455 21.1857 7.36392 20.3867C6.72485 19.988 6.07355 19.635 5.44667 19.3928ZM50.1293 12.0074C48.3907 9.12487 46.019 6.90648 42.9476 6.92723C40.6281 6.9429 37.3581 7.82721 35.0511 8.41751C30.8914 9.48187 26.5405 10.7837 22.5012 12.2353C20.3205 13.019 17.933 13.8461 16.0709 15.1623C14.2134 16.4752 12.8843 18.2708 12.8132 20.9943C12.7698 22.6586 13.3615 25.2318 14.1792 27.763C14.9963 30.2921 16.0344 32.7663 16.8778 34.2298C17.759 35.7588 18.6984 36.7968 19.696 37.4745C20.6928 38.1514 21.7526 38.4722 22.8812 38.5615C24.0113 38.651 25.2113 38.5085 26.4859 38.2582C27.7614 38.0076 29.1049 37.6502 30.5283 37.312C34.8375 36.2883 39.1591 35.1167 43.3723 33.7502C46.8059 32.6366 49.7524 31.5114 51.6309 29.6278C53.501 27.7525 54.3224 25.1133 53.4721 20.9378C52.9567 18.4071 51.8661 14.887 50.1293 12.0074ZM58.6155 1.17085C58.1409 1.02945 57.5357 1.25697 56.8318 1.94127C56.3934 2.36743 55.9092 3.04872 55.4148 3.87552C54.9211 4.70099 54.4198 5.66652 53.9446 6.65681C52.9941 8.63771 52.1509 10.7146 51.6907 11.9609C51.6654 12.0293 51.6317 12.1112 51.6044 12.1962C51.5762 12.2838 51.5621 12.3553 51.5679 12.3981C51.5672 12.3923 51.5667 12.3926 51.5723 12.4077C51.5767 12.4196 51.5837 12.4359 51.5922 12.4564C51.6092 12.4973 51.6331 12.5525 51.6623 12.617C51.7207 12.746 51.7987 12.9115 51.8786 13.0742C51.9585 13.2371 52.0397 13.3966 52.1055 13.5142C52.1333 13.5639 52.1583 13.6045 52.1781 13.6347C52.922 12.9666 53.7153 12.3613 54.5133 11.7661C55.334 11.1541 56.1583 10.5528 56.9454 9.90415L56.9521 9.89929L56.9596 9.89556C57.2346 9.75087 57.4994 9.82338 57.6394 10.0109C57.7785 10.1973 57.7805 10.4784 57.5771 10.7179L57.5723 10.7231L57.5656 10.728C56.8916 11.2753 56.1909 11.7925 55.4924 12.3084C54.7933 12.8246 54.0965 13.34 53.4276 13.8852C53.293 13.995 53.0876 14.1353 52.9072 14.298C52.8188 14.3778 52.7422 14.4583 52.6911 14.5343C52.6431 14.6059 52.6235 14.6651 52.6258 14.7127L53.5547 17.1836L53.6313 17.2553C54.3747 17.0999 55.1138 16.8994 55.8565 16.6973C56.612 16.4917 57.3712 16.2845 58.1384 16.1257C58.3202 16.0881 58.8774 15.9766 59.4148 15.883C59.6834 15.8362 59.9485 15.7939 60.1594 15.7674C60.2646 15.7542 60.3577 15.7448 60.4317 15.741C60.4687 15.739 60.5025 15.7379 60.5309 15.7391C60.5576 15.7402 60.5862 15.7429 60.6102 15.7509C60.8698 15.8377 60.9951 16.0394 60.9813 16.2478C60.9677 16.4519 60.8216 16.6442 60.5814 16.7225L60.5689 16.7264L60.5563 16.6453L60.5681 16.7253C58.3082 17.0708 56.1137 17.7103 53.8916 18.2684C53.8905 18.2726 53.8886 18.2784 53.8878 18.2856C53.8855 18.3087 53.8872 18.3389 53.8924 18.3744C53.8975 18.4096 53.9056 18.4466 53.9137 18.4817C53.9214 18.515 53.9301 18.551 53.9349 18.5771C53.9974 18.9167 54.2137 19.8314 54.3248 20.1255C54.3584 20.2143 54.3752 20.2688 54.4201 20.308L58.6237 21.0772L58.6227 21.077C58.8183 21.0984 58.9388 21.2608 58.9892 21.4248C59.0398 21.5899 59.0315 21.7918 58.9332 21.9262C58.85 22.0398 58.7055 22.081 58.5577 22.0903C58.4068 22.0998 58.2303 22.0784 58.0555 22.0451C57.8799 22.0118 57.7007 21.9656 57.5438 21.9242C57.3847 21.8823 57.2517 21.8462 57.1623 21.8302C56.3214 21.6797 55.48 21.5266 54.6348 21.4266C54.6482 21.4897 54.6598 21.5603 54.6687 21.6338C54.6841 21.7621 54.6955 21.907 54.7071 22.0465C54.7189 22.1869 54.7315 22.322 54.7484 22.4359C54.7658 22.5536 54.7874 22.6366 54.8112 22.6785C54.8619 22.7675 54.9942 22.9043 55.1844 23.0699C55.372 23.2331 55.6069 23.4173 55.85 23.5993C56.3359 23.9632 56.8527 24.3175 57.0935 24.4838C58.0273 25.129 59.1533 25.8542 60.1301 26.4452C60.8266 26.8665 61.7411 27.3856 62.5978 27.5405C63.0247 27.6176 63.4309 27.6025 63.7861 27.4458C64.1396 27.2898 64.4531 26.9888 64.6881 26.4752C64.8316 26.161 64.8449 25.7513 64.7802 25.2753C64.7155 24.8005 64.5745 24.2713 64.4194 23.7247C64.2648 23.1801 64.0962 22.6174 63.9801 22.0833C63.8642 21.5496 63.7993 21.0356 63.8548 20.5874C63.9766 19.6046 64.5921 18.8843 65.0815 18.1576C65.5739 17.4266 65.9534 16.6751 65.6749 15.5944C65.3782 14.4429 64.5031 13.6314 63.5235 12.8219C62.5507 12.0181 61.4741 11.2161 60.8292 10.0918C60.1324 8.87694 60.0124 7.63934 59.9867 6.41321C59.961 5.18211 60.0297 3.97252 59.7245 2.78051C59.4832 1.83838 59.0912 1.31261 58.6155 1.17085Z" fill="#2A3246" stroke="#2A3246" stroke-width="0.1625"></path>
                </svg>