<svg xmlns="http://www.w3.org/2000/svg" width="103" height="107" viewBox="0 0 103 107" fill="none">
<path d="M76.3349 25.8354C77.9423 26.4982 79.5893 27.2093 80.8254 28.4659C82.1335 29.8005 82.8624 31.6218 83.5591 33.4134C87.1036 42.4757 90.6553 51.5567 94.1999 60.619C94.5482 61.5148 94.9255 62.4852 94.6743 63.4412C94.4132 64.532 93.439 65.2308 92.5394 65.8544C72.3834 79.5972 52.0038 92.9785 31.4256 106.009C27.0128 81.7369 22.1257 57.5799 16.7394 33.5273C16.1337 30.8482 35.9994 16.3589 38.5011 14.3549C39.3895 13.6491 40.2958 12.9357 41.3689 12.6515C43.0125 12.2325 44.713 12.9209 46.2921 13.6175C56.2712 17.9736 66.2825 21.7718 76.2992 25.8506L76.3349 25.8354Z" fill="#FEE358"/>
<path d="M76.3349 25.8354C77.9423 26.4982 79.5893 27.2093 80.8254 28.4659C82.1335 29.8005 82.8624 31.6218 83.5591 33.4134C87.1036 42.4757 90.6553 51.5567 94.1999 60.619C94.5482 61.5148 94.9255 62.4852 94.6743 63.4412C94.4132 64.532 93.439 65.2308 92.5394 65.8544C72.3834 79.5972 52.0038 92.9785 31.4256 106.009C27.0128 81.7369 22.1257 57.5799 16.7394 33.5273C16.1337 30.8482 35.9994 16.3589 38.5011 14.3549C39.3895 13.6491 40.2958 12.9357 41.3689 12.6515C43.0125 12.2325 44.713 12.9209 46.2921 13.6175C56.2712 17.9736 66.2825 21.7718 76.2992 25.8506L76.3349 25.8354Z" stroke="#2A3246" stroke-width="1.74796" stroke-linejoin="round"/>
<path d="M76.3349 25.8354C77.9423 26.4982 79.5893 27.2093 80.8254 28.4659C82.1335 29.8005 82.8624 31.6218 83.5591 33.4134C87.1036 42.4757 90.6553 51.5567 94.1999 60.619C94.5482 61.5148 94.9255 62.4852 94.6743 63.4412C94.4132 64.532 93.439 65.2308 92.5394 65.8544C72.3834 79.5972 52.0038 92.9785 31.4256 106.009C27.0128 81.7369 22.1257 57.5799 16.7394 33.5273C16.1337 30.8482 35.9994 16.3589 38.5011 14.3549C39.3895 13.6491 40.2958 12.9357 41.3689 12.6515C43.0125 12.2325 44.713 12.9209 46.2921 13.6175C56.2712 17.9736 66.2825 21.7718 76.2992 25.8506L76.3349 25.8354Z" stroke="black" stroke-opacity="0.2" stroke-width="1.74796" stroke-linejoin="round"/>
<path d="M33.8578 41.1306C44.1046 35.014 54.2684 28.7371 64.3135 22.3149C67.0469 34.2044 70.918 45.8691 75.8504 57.0588" fill="#FBE887"/>
<path d="M33.8578 41.1306C44.1047 35.014 54.2684 28.7371 64.3135 22.3149C67.0469 34.2044 70.918 45.8691 75.8504 57.0588" stroke="#2A3246" stroke-width="1.74796"/>
<path d="M33.8578 41.1306C44.1047 35.014 54.2684 28.7371 64.3135 22.3149C67.0469 34.2044 70.918 45.8691 75.8504 57.0588" stroke="black" stroke-opacity="0.2" stroke-width="1.74796"/>
<path d="M33.9507 41.8509C31.9456 51.9245 32.6636 63.6257 32.4318 73.9484C32.301 79.3792 32.2413 84.8254 32.2641 90.2592C32.271 93.4126 30.9037 102.551 33.2777 104.624C31.891 103.41 49.3616 86.4117 50.7759 85.1216C59.6786 76.9971 68.6177 68.1122 75.2474 57.8935" fill="#FBE887"/>
<path d="M33.9507 41.8509C31.9456 51.9245 32.6636 63.6257 32.4319 73.9484C32.301 79.3792 32.2413 84.8254 32.2641 90.2592C32.271 93.4126 30.9037 102.551 33.2777 104.624C31.891 103.41 49.3616 86.4117 50.7759 85.1216C59.6786 76.9971 68.6177 68.1122 75.2474 57.8935" stroke="#2A3246" stroke-width="1.74796"/>
<path d="M33.9507 41.8509C31.9456 51.9245 32.6636 63.6257 32.4319 73.9484C32.301 79.3792 32.2413 84.8254 32.2641 90.2592C32.271 93.4126 30.9037 102.551 33.2777 104.624C31.891 103.41 49.3616 86.4117 50.7759 85.1216C59.6786 76.9971 68.6177 68.1122 75.2474 57.8935" stroke="black" stroke-opacity="0.2" stroke-width="1.74796"/>
<path d="M16.3594 33.9955C42.3786 44.0364 68.4051 54.0959 94.4243 64.1368" stroke="#2A3246" stroke-width="1.74796"/>
<path d="M16.3594 33.9955C42.3786 44.0364 68.4051 54.0959 94.4243 64.1368" stroke="black" stroke-opacity="0.2" stroke-width="1.74796"/>
</svg>