<svg xmlns="http://www.w3.org/2000/svg" width="96" height="104" viewBox="0 0 96 104" fill="none">
<path d="M43.9753 37.1579C41.3895 28.1001 38.8474 22.1173 38.9636 14.1859C39.0362 8.9948 40.6922 2.78368 45.457 1.35269C49.3646 0.180496 53.5483 3.13383 55.2915 6.98533C57.0347 10.8368 56.8894 15.2973 56.4972 19.5446C55.9016 25.984 54.8121 32.3778 53.2432 38.6498C55.6256 27.7956 59.6349 17.8243 68.4526 12.5875C70.6897 11.2631 73.5078 10.2431 75.7595 11.5675C78.3307 13.0899 78.7084 16.8348 78.1128 19.8643C76.0355 30.2922 66.782 37.1427 58.2404 42.9124C63.9639 40.2939 69.6874 37.6755 75.4108 35.0571C79.1732 33.3369 83.1535 31.571 87.2355 32.0429C91.3175 32.5148 95.3704 36.0923 94.9637 40.3701C94.4843 45.3633 88.9061 47.7077 84.1994 48.7124C75.7014 50.524 67.0435 51.4831 58.3857 51.5744C66.506 52.2747 74.5828 53.7209 82.4563 55.8979C85.9136 56.8569 89.5162 58.0596 91.855 60.8911C93.8597 63.2964 94.5569 67.3915 92.5087 69.9946C89.2111 74.2115 80.8874 73.5721 76.4277 72.339C70.3701 70.6645 63.7896 66.6455 59.1265 62.2764C67.276 69.9185 73.7257 73.0241 77.401 81.3969C78.6067 84.1523 79.5073 87.3645 78.3888 90.1503C76.5875 94.626 70.3846 95.4024 66.4189 92.8753C62.4531 90.3482 60.216 85.7508 58.1823 81.3969C55.7418 76.1449 53.2868 70.8928 50.8463 65.6408C53.9405 72.2781 54.3327 75.9774 56.0178 81.1838C57.7029 86.3902 58.4438 92.3881 55.8435 97.1683C53.2432 101.948 46.285 104.186 42.5807 100.289C40.576 98.173 40.0531 95.0066 39.7771 92.038C39.0798 84.335 39.443 76.5255 40.8375 68.929C41.1571 67.1631 43.3361 63.1442 41.6365 63.3877C40.6341 69.7359 38.8764 82.5691 35.9421 88.217C33.211 93.469 28.0105 98.8733 22.6357 96.8942C18.2632 95.2806 16.6216 89.2674 18.0307 84.6243C19.4543 79.9964 23.0279 76.495 26.5288 73.2981C30.0297 70.1012 33.734 66.8282 35.5498 62.3525C27.8071 68.655 18.0307 72.1716 8.22525 72.1868C5.31992 72.1868 1.68829 71.2886 1.07818 68.3049C0.569745 65.7778 2.63248 63.54 4.62263 62.0176C12.6413 55.8826 22.6938 53.7361 32.5283 52.8075C24.0447 52.8988 14.8058 51.7723 7.49892 46.7334C4.70981 44.8001 1.92071 41.7858 2.5163 38.3454C2.99568 35.6052 5.58139 33.7175 8.21071 33.2912C10.84 32.865 13.4984 33.6261 16.0406 34.4177C22.6357 36.4729 29.1726 38.9239 34.9978 42.7601C30.6108 38.528 26.2237 34.2807 21.8367 30.0486C19.4107 27.7043 16.9412 25.299 15.4595 22.2239C13.9778 19.1488 13.6437 15.2059 15.5031 12.3744C17.4351 9.42106 21.3137 8.35542 24.6548 9.11658C27.996 9.86252 30.8577 12.1156 33.2691 14.6579C38.4842 20.1839 41.651 29.4093 43.9753 37.1123V37.1579Z" fill="white"/>
<path d="M43.9753 37.1579C41.3895 28.1001 38.8474 22.1173 38.9636 14.1859C39.0362 8.9948 40.6922 2.78368 45.457 1.35269C49.3646 0.180496 53.5483 3.13383 55.2915 6.98533C57.0347 10.8368 56.8894 15.2973 56.4972 19.5446C55.9016 25.984 54.8121 32.3778 53.2432 38.6498C55.6256 27.7956 59.6349 17.8243 68.4526 12.5875C70.6897 11.2631 73.5078 10.2431 75.7595 11.5675C78.3307 13.0899 78.7084 16.8348 78.1128 19.8643C76.0355 30.2922 66.782 37.1427 58.2404 42.9124C63.9639 40.2939 69.6874 37.6755 75.4108 35.0571C79.1732 33.3369 83.1535 31.571 87.2355 32.0429C91.3175 32.5148 95.3704 36.0923 94.9637 40.3701C94.4843 45.3633 88.9061 47.7077 84.1994 48.7124C75.7014 50.524 67.0435 51.4831 58.3857 51.5744C66.506 52.2747 74.5828 53.7209 82.4563 55.8979C85.9136 56.8569 89.5162 58.0596 91.855 60.8911C93.8597 63.2964 94.5569 67.3915 92.5087 69.9946C89.2111 74.2115 80.8874 73.5721 76.4277 72.339C70.3701 70.6645 63.7896 66.6455 59.1265 62.2764C67.276 69.9185 73.7257 73.0241 77.401 81.3969C78.6067 84.1523 79.5073 87.3645 78.3888 90.1503C76.5875 94.626 70.3846 95.4024 66.4189 92.8753C62.4531 90.3482 60.216 85.7508 58.1823 81.3969C55.7418 76.1449 53.2868 70.8928 50.8463 65.6408C53.9405 72.2781 54.3327 75.9774 56.0178 81.1838C57.7029 86.3902 58.4438 92.3881 55.8435 97.1683C53.2432 101.948 46.285 104.186 42.5807 100.289C40.576 98.173 40.0531 95.0066 39.7771 92.038C39.0798 84.335 39.443 76.5255 40.8375 68.929C41.1571 67.1631 43.3361 63.1442 41.6365 63.3877C40.6341 69.7359 38.8764 82.5691 35.9421 88.217C33.211 93.469 28.0105 98.8733 22.6357 96.8942C18.2632 95.2806 16.6216 89.2674 18.0307 84.6243C19.4543 79.9964 23.0279 76.495 26.5288 73.2981C30.0297 70.1012 33.734 66.8282 35.5498 62.3525C27.8071 68.655 18.0307 72.1716 8.22525 72.1868C5.31992 72.1868 1.68829 71.2886 1.07818 68.3049C0.569745 65.7778 2.63248 63.54 4.62263 62.0176C12.6413 55.8826 22.6938 53.7361 32.5283 52.8075C24.0447 52.8988 14.8058 51.7723 7.49892 46.7334C4.70981 44.8001 1.92071 41.7858 2.5163 38.3454C2.99568 35.6052 5.58139 33.7175 8.21071 33.2912C10.84 32.865 13.4984 33.6261 16.0406 34.4177C22.6357 36.4729 29.1726 38.9239 34.9978 42.7601C30.6108 38.528 26.2237 34.2807 21.8367 30.0486C19.4107 27.7043 16.9412 25.299 15.4595 22.2239C13.9778 19.1488 13.6437 15.2059 15.5031 12.3744C17.4351 9.42106 21.3137 8.35542 24.6548 9.11658C27.996 9.86252 30.8577 12.1156 33.2691 14.6579C38.4842 20.1839 41.651 29.4093 43.9753 37.1123V37.1579Z" stroke="#2A3246" stroke-width="1.74796" stroke-linecap="round" stroke-linejoin="round"/>
<path d="M43.9753 37.1579C41.3895 28.1001 38.8474 22.1173 38.9636 14.1859C39.0362 8.9948 40.6922 2.78368 45.457 1.35269C49.3646 0.180496 53.5483 3.13383 55.2915 6.98533C57.0347 10.8368 56.8894 15.2973 56.4972 19.5446C55.9016 25.984 54.8121 32.3778 53.2432 38.6498C55.6256 27.7956 59.6349 17.8243 68.4526 12.5875C70.6897 11.2631 73.5078 10.2431 75.7595 11.5675C78.3307 13.0899 78.7084 16.8348 78.1128 19.8643C76.0355 30.2922 66.782 37.1427 58.2404 42.9124C63.9639 40.2939 69.6874 37.6755 75.4108 35.0571C79.1732 33.3369 83.1535 31.571 87.2355 32.0429C91.3175 32.5148 95.3704 36.0923 94.9637 40.3701C94.4843 45.3633 88.9061 47.7077 84.1994 48.7124C75.7014 50.524 67.0435 51.4831 58.3857 51.5744C66.506 52.2747 74.5828 53.7209 82.4563 55.8979C85.9136 56.8569 89.5162 58.0596 91.855 60.8911C93.8597 63.2964 94.5569 67.3915 92.5087 69.9946C89.2111 74.2115 80.8874 73.5721 76.4277 72.339C70.3701 70.6645 63.7896 66.6455 59.1265 62.2764C67.276 69.9185 73.7257 73.0241 77.401 81.3969C78.6067 84.1523 79.5073 87.3645 78.3888 90.1503C76.5875 94.626 70.3846 95.4024 66.4189 92.8753C62.4531 90.3482 60.216 85.7508 58.1823 81.3969C55.7418 76.1449 53.2868 70.8928 50.8463 65.6408C53.9405 72.2781 54.3327 75.9774 56.0178 81.1838C57.7029 86.3902 58.4438 92.3881 55.8435 97.1683C53.2432 101.948 46.285 104.186 42.5807 100.289C40.576 98.173 40.0531 95.0066 39.7771 92.038C39.0798 84.335 39.443 76.5255 40.8375 68.929C41.1571 67.1631 43.3361 63.1442 41.6365 63.3877C40.6341 69.7359 38.8764 82.5691 35.9421 88.217C33.211 93.469 28.0105 98.8733 22.6357 96.8942C18.2632 95.2806 16.6216 89.2674 18.0307 84.6243C19.4543 79.9964 23.0279 76.495 26.5288 73.2981C30.0297 70.1012 33.734 66.8282 35.5498 62.3525C27.8071 68.655 18.0307 72.1716 8.22525 72.1868C5.31992 72.1868 1.68829 71.2886 1.07818 68.3049C0.569745 65.7778 2.63248 63.54 4.62263 62.0176C12.6413 55.8826 22.6938 53.7361 32.5283 52.8075C24.0447 52.8988 14.8058 51.7723 7.49892 46.7334C4.70981 44.8001 1.92071 41.7858 2.5163 38.3454C2.99568 35.6052 5.58139 33.7175 8.21071 33.2912C10.84 32.865 13.4984 33.6261 16.0406 34.4177C22.6357 36.4729 29.1726 38.9239 34.9978 42.7601C30.6108 38.528 26.2237 34.2807 21.8367 30.0486C19.4107 27.7043 16.9412 25.299 15.4595 22.2239C13.9778 19.1488 13.6437 15.2059 15.5031 12.3744C17.4351 9.42106 21.3137 8.35542 24.6548 9.11658C27.996 9.86252 30.8577 12.1156 33.2691 14.6579C38.4842 20.1839 41.651 29.4093 43.9753 37.1123V37.1579Z" stroke="black" stroke-opacity="0.2" stroke-width="1.74796" stroke-linecap="round" stroke-linejoin="round"/>
<path d="M35.5105 39.029C32.2226 42.3835 30.3611 47.2147 30.4829 52.0277C30.5351 53.9237 30.8656 55.7833 31.2135 57.6428C31.8746 61.2708 32.6401 65.1175 35.1452 67.7245C36.9197 69.5841 39.3552 70.5504 41.7385 71.3525C48.2449 73.5402 56.2299 74.5247 61.1184 69.5476C64.8238 65.7738 65.4327 59.7576 65.1022 54.343C64.7891 49.366 63.6931 44.0243 60.1268 40.7062C53.029 34.1066 42.8867 31.536 35.5279 39.0472L35.5105 39.029Z" fill="#FEE358"/>
<path d="M35.5105 39.029C32.2226 42.3835 30.3611 47.2147 30.4829 52.0277C30.5351 53.9237 30.8656 55.7833 31.2135 57.6428C31.8746 61.2708 32.6401 65.1175 35.1452 67.7245C36.9197 69.5841 39.3552 70.5504 41.7385 71.3525C48.2449 73.5402 56.2299 74.5247 61.1184 69.5476C64.8238 65.7738 65.4327 59.7576 65.1022 54.343C64.7891 49.366 63.6931 44.0243 60.1268 40.7062C53.029 34.1066 42.8867 31.536 35.5279 39.0472L35.5105 39.029Z" stroke="#2A3246" stroke-width="1.74796" stroke-linecap="round" stroke-linejoin="round"/>
<path d="M35.5105 39.029C32.2226 42.3835 30.3611 47.2147 30.4829 52.0277C30.5351 53.9237 30.8656 55.7833 31.2135 57.6428C31.8746 61.2708 32.6401 65.1175 35.1452 67.7245C36.9197 69.5841 39.3552 70.5504 41.7385 71.3525C48.2449 73.5402 56.2299 74.5247 61.1184 69.5476C64.8238 65.7738 65.4327 59.7576 65.1022 54.343C64.7891 49.366 63.6931 44.0243 60.1268 40.7062C53.029 34.1066 42.8867 31.536 35.5279 39.0472L35.5105 39.029Z" stroke="black" stroke-opacity="0.2" stroke-width="1.74796" stroke-linecap="round" stroke-linejoin="round"/>
</svg>