<svg xmlns="http://www.w3.org/2000/svg" width="217" height="208" viewBox="0 0 217 208" fill="none">
<g clip-path="url(#clip0_10867_9915)">
<path d="M211.591 91.2637C210.361 88.8187 209.207 86.3281 207.825 83.9439C203.907 77.1555 201.553 69.8812 200.702 62.0906C200.49 60.086 200.019 58.0814 199.806 56.0616C198.485 44.1858 191.909 36.3648 181.173 31.7329C172.015 27.7692 163.769 22.5451 157.208 14.8912C155.948 13.4333 154.49 12.1576 153.154 10.7756C145.895 3.25834 137.041 0.737396 126.987 2.87868C115.081 5.41482 103.251 5.62743 91.3449 2.9698C80.3955 0.524785 70.9343 3.41021 63.493 11.8083C55.4745 20.8594 46.1349 27.9667 34.9273 32.553C34.0009 32.9326 33.1657 33.5401 32.2545 34.0109C24.6765 38.0505 20.0902 44.2313 18.5563 52.7206C16.3239 65.219 14.0004 77.6111 7.09056 88.7276C0.80338 98.8266 1.03118 109.412 7.09056 119.647C12.8158 129.336 16.3998 139.633 17.3718 150.901C18.45 163.414 25.0257 172.01 36.5674 176.854C46.2716 180.94 54.6241 186.908 61.5187 194.881C62.4451 195.959 63.4019 197.068 64.556 197.872C68.0337 200.302 71.3899 203.021 75.1713 204.798C80.9726 207.531 87.2294 206.21 93.1521 205.01C103.691 202.884 114.094 202.778 124.588 205.04C127.458 205.663 130.42 205.815 133.335 206.179C139.182 206.301 144.467 204.676 148.947 201.001C152.318 198.252 155.538 195.26 158.499 192.071C163.769 186.407 169.783 181.896 176.799 178.662C180.018 177.158 183.177 175.518 186.26 173.756C192.866 170.005 197.194 164.462 198.804 156.975C199.275 154.789 199.822 152.617 200.034 150.385C201.082 140.255 203.725 130.657 209.101 121.895C210.209 120.088 211.044 118.098 211.971 116.169C215.98 107.787 215.707 99.4948 211.576 91.2485V91.2789L211.591 91.2637Z" fill="#FB693E"/>
<path d="M82.9012 207.91C80.0765 207.91 77.2518 207.455 74.5031 206.164C71.4658 204.737 68.7019 202.747 66.0442 200.818C65.2545 200.241 64.4648 199.664 63.66 199.118C62.3539 198.206 61.3364 197.022 60.3493 195.883C53.7128 188.214 45.5122 182.291 35.9447 178.267C23.7044 173.118 16.9465 163.961 15.8379 151.037C14.9267 140.392 11.6312 130.369 5.76927 120.437C-0.669775 109.533 -0.654589 98.2948 5.79965 87.9376C12.7247 76.8212 15.033 63.8823 17.068 52.4773C18.6626 43.6236 23.5222 36.972 31.5406 32.7046C31.8596 32.5375 32.1633 32.3553 32.467 32.173C33.0593 31.8238 33.6668 31.4593 34.3501 31.1859C44.8743 26.873 54.0318 20.2061 62.3539 10.8361C70.1446 2.01279 80.0006 -1.11562 91.6637 1.49645C103.008 4.03258 114.459 3.98702 126.668 1.39014C137.42 -0.903008 146.699 1.90648 154.247 9.7275C154.748 10.2438 155.249 10.7298 155.766 11.231C156.646 12.0814 157.542 12.947 158.363 13.919C164.149 20.6769 171.803 26.0529 181.765 30.3659C193.413 35.4078 199.973 44.0033 201.295 55.9246C201.401 56.8966 201.568 57.8837 201.735 58.8556C201.917 59.8883 202.084 60.921 202.206 61.9536C203.041 69.5469 205.365 76.6997 209.131 83.1995C209.981 84.6725 210.756 86.1912 211.5 87.6946L212.943 90.5649C217.347 99.3426 217.483 108.181 213.353 116.822C213.125 117.293 212.912 117.764 212.684 118.235C212.001 119.708 211.287 121.241 210.391 122.684C205.562 130.566 202.661 139.678 201.538 150.536C201.34 152.48 200.915 154.393 200.505 156.246L200.277 157.279C198.622 165.009 194.142 171.007 187.004 175.062C183.8 176.885 180.58 178.555 177.437 180.013C170.74 183.111 164.908 187.378 159.608 193.089C156.677 196.232 153.412 199.285 149.904 202.17C145.272 205.967 139.683 207.819 133.29 207.698H133.138C132.242 207.576 131.346 207.485 130.45 207.394C128.415 207.182 126.304 206.969 124.254 206.529C114.17 204.357 104.086 204.342 93.4406 206.498L93.2583 206.529C89.9781 207.197 86.4548 207.91 82.9164 207.91H82.9012ZM84.0705 3.65292C76.5381 3.65292 70.0231 6.72058 64.6167 12.8255C55.9908 22.56 46.4537 29.4699 35.4891 33.9802C35.0183 34.1777 34.5324 34.4662 34.016 34.7699C33.6668 34.9825 33.3023 35.1951 32.953 35.3774C25.7091 39.2347 21.4872 45.0056 20.0445 53.0088C17.964 64.6872 15.5949 77.9298 8.36615 89.5474C2.45863 99.0237 2.47382 108.895 8.36615 118.888C14.4711 129.23 17.9032 139.663 18.8448 150.779C19.8471 162.488 25.9976 170.78 37.1141 175.457C47.1067 179.664 55.6871 185.86 62.6273 193.878C63.4929 194.88 64.3889 195.913 65.3912 196.612C66.1961 197.174 67.001 197.766 67.821 198.343C70.3724 200.181 72.9996 202.094 75.7939 203.4C81.0788 205.891 86.9559 204.691 92.6357 203.537L92.8179 203.491C103.889 201.244 114.383 201.259 124.876 203.537C126.775 203.947 128.703 204.144 130.754 204.357C131.65 204.448 132.53 204.539 133.426 204.645C139.015 204.737 143.935 203.127 147.975 199.801C151.377 197.007 154.551 194.045 157.391 191.008C162.964 185.024 169.115 180.514 176.161 177.249C179.229 175.822 182.372 174.197 185.516 172.405C191.879 168.79 195.858 163.475 197.331 156.626L197.559 155.578C197.969 153.74 198.348 151.994 198.531 150.217C199.7 138.888 202.737 129.366 207.825 121.074C208.614 119.784 209.267 118.402 209.951 116.944C210.179 116.458 210.406 115.972 210.634 115.501C214.249 107.938 214.279 100.497 210.68 92.8125L210.239 91.9469C209.921 91.3242 209.617 90.7016 209.313 90.0789C208.432 88.2869 207.521 86.4494 206.519 84.7029C202.54 77.8235 200.08 70.2758 199.199 62.2574C199.093 61.2854 198.926 60.3135 198.758 59.3416C198.576 58.3089 198.409 57.2762 198.288 56.2435C197.073 45.3397 191.287 37.7768 180.565 33.145C170.162 28.6498 162.144 23.0004 156.054 15.8932C155.325 15.0427 154.505 14.2531 153.64 13.4178C153.108 12.9015 152.561 12.3851 152.045 11.8384C145.272 4.82228 136.95 2.31652 127.291 4.36669C114.641 7.05468 102.765 7.08506 90.9955 4.4578C88.5961 3.92628 86.2877 3.65292 84.0705 3.65292Z" fill="#2A3246"/>
<path d="M87.9127 37.0629L89.5073 42.8945L91.9068 35.9695L94.4125 35.2861L92.2409 41.1937L98.1939 47.6479L95.6578 48.3313L91.0259 43.1223L90.1755 45.4155L91.2993 49.531L89.1125 50.1233L85.7107 37.64L87.8975 37.0478L87.9127 37.0629Z" fill="#2A3246"/>
<path d="M103.843 45.3851L103.296 35.9999L100.32 36.1822L100.214 34.4205L108.475 33.9346L108.581 35.6962L105.559 35.8784L106.106 45.2636L109.128 45.0814L109.234 46.843L100.973 47.329L100.867 45.5674L103.843 45.3851Z" fill="#2A3246"/>
<path d="M114.504 34.1621L118.62 34.7544C121.976 35.2403 123.51 38.0802 122.963 41.8313C122.401 45.6582 119.971 48.0273 116.721 47.5565L112.651 46.9643L114.504 34.1621ZM120.67 41.4972C121.065 38.8243 120.305 36.8197 118.194 36.516L116.478 36.273L115.142 45.5064L116.812 45.7494C118.863 46.0531 120.275 44.2307 120.67 41.4972Z" fill="#2A3246"/>
<path d="M125.135 45.6128L127.291 45.6432C127.154 47.1467 127.595 48.4831 129.235 49.0905C130.207 49.4398 131.498 49.5006 131.953 48.2249C132.424 46.9189 131.741 46.2811 130.875 45.6736L129.432 44.6409C127.807 43.4867 126.957 41.9681 127.625 40.1305C128.354 38.1107 130.571 37.154 133.032 38.05C135.249 38.8549 136.631 40.3887 136.327 42.6363L134.201 42.9248C134.429 41.1329 133.502 40.1913 132.378 39.7813C130.89 39.2345 130.131 39.8876 129.842 40.6621C129.508 41.5733 129.979 42.4085 130.875 43.0312L132.333 44.0638C133.867 45.1421 135.021 46.4785 134.201 48.7261C133.502 50.6244 131.422 51.8848 128.506 50.8218C125.924 49.8802 124.892 47.906 125.104 45.6128H125.135Z" fill="#2A3246"/>
<path d="M142.629 43.1831L140.306 46.9037L139.44 46.4481L141.232 42.4541L142.629 43.1982V43.1831Z" fill="#2A3246"/>
<path d="M157.087 52.8115L158.514 54.3302L152.956 60.0403C152.121 60.9059 151.559 61.4526 151.119 61.8778L151.225 61.9993C151.498 61.7563 151.999 61.3919 153.108 60.6781L157.482 57.9597L158.727 59.2809L155.75 63.4876C154.976 64.5506 154.566 65.0214 154.323 65.2948L154.444 65.4163C154.885 65.0062 155.462 64.4747 156.373 63.7002L162.402 58.4912L163.83 60.0099L153.761 68.1954L151.969 66.2971L154.961 62.1512C155.599 61.3007 156.221 60.587 156.646 60.1314L156.525 59.9947C156.054 60.3896 155.31 60.9666 154.414 61.5589L150.086 64.3077L148.294 62.4093L157.057 52.8419L157.087 52.8115Z" fill="#2A3246"/>
<path d="M169.813 72.2652L166.912 67.5726L163.89 69.4405L166.624 73.875L165.09 74.8165L162.356 70.3821L159.076 72.4171L162.053 77.216L160.473 78.1879L156.312 71.4451L167.322 64.6416L171.423 71.2781L169.843 72.25L169.813 72.2652Z" fill="#2A3246"/>
<path d="M175.189 79.6915L164.817 83.4578L166.821 88.9704L165.029 89.6235L162.25 81.9847L174.415 77.5654L175.189 79.6915Z" fill="#2A3246"/>
<path d="M179.016 93.7695L168.097 95.3185L168.932 101.135L167.034 101.408L165.88 93.3595L178.697 91.5371L179.016 93.7695Z" fill="#2A3246"/>
<path d="M169.965 111.431V111.507C170.466 111.462 171.18 111.492 171.726 111.522L179.654 112.024L179.517 114.119L166.609 113.314L166.761 110.9L175.235 107.832C175.933 107.589 176.784 107.392 176.966 107.377V107.285C176.525 107.331 175.948 107.316 175.462 107.285L167.019 106.754L167.155 104.658L180.064 105.463L179.897 108.106L171.818 110.945C171.058 111.204 170.345 111.386 169.965 111.447V111.431Z" fill="#2A3246"/>
<path d="M174.582 127.453L176.04 122.122L172.607 121.181L171.241 126.207L169.494 125.737L170.861 120.71L167.14 119.692L165.652 125.144L163.86 124.658L165.941 117.02L178.424 120.421L176.374 127.939L174.582 127.453Z" fill="#2A3246"/>
<path d="M165.91 129.077L165.622 131.219C164.149 130.9 162.767 131.173 161.962 132.737C161.491 133.664 161.278 134.924 162.493 135.547C163.723 136.169 164.437 135.577 165.151 134.787L166.351 133.481C167.687 132.008 169.297 131.34 171.058 132.236C172.972 133.208 173.655 135.532 172.471 137.87C171.408 139.966 169.707 141.151 167.505 140.573L167.474 138.432C169.236 138.873 170.269 138.083 170.815 137.005C171.529 135.592 170.983 134.757 170.254 134.377C169.388 133.937 168.507 134.317 167.763 135.122L166.563 136.428C165.303 137.81 163.845 138.797 161.704 137.718C159.896 136.807 158.909 134.575 160.306 131.811C161.552 129.351 163.647 128.576 165.895 129.077H165.91Z" fill="#2A3246"/>
<path d="M159.911 140.24L159.198 142.275C157.816 141.667 156.403 141.652 155.31 143.019C154.657 143.824 154.201 145.023 155.264 145.874C156.343 146.74 157.163 146.299 158.013 145.677L159.456 144.629C161.066 143.459 162.782 143.14 164.316 144.37C165.986 145.722 166.199 148.122 164.543 150.172C163.07 152.009 161.172 152.829 159.137 151.812L159.547 149.701C161.172 150.491 162.356 149.929 163.116 148.987C164.103 147.757 163.738 146.815 163.101 146.299C162.341 145.692 161.4 145.874 160.519 146.512L159.076 147.56C157.558 148.653 155.933 149.336 154.065 147.833C152.485 146.573 151.969 144.188 153.898 141.774C155.614 139.632 157.831 139.298 159.927 140.225L159.911 140.24Z" fill="#2A3246"/>
<path d="M137.694 159.633L139.228 158.783L142.265 162.336C142.766 162.898 143.617 163.961 144.087 164.629L144.194 164.569C143.647 163.657 142.842 162.291 142.356 161.41L138.985 155.335L140.731 154.363L147.018 165.677L144.543 167.044L140.67 162.564C140.276 162.124 139.866 161.562 139.638 161.228L139.547 161.288C139.714 161.653 139.972 162.306 140.139 162.883L141.901 168.532L139.425 169.899L133.138 158.585L134.884 157.613L138.256 163.688C138.757 164.584 139.486 165.981 139.972 166.922L140.078 166.862C139.759 166.118 139.304 164.827 139.091 164.113L137.679 159.663L137.694 159.633Z" fill="#2A3246"/>
<path d="M131.027 173.118L128.521 173.892L120.974 162.685L123.1 162.032L124.983 164.887L128.871 163.687L128.779 160.27L130.906 159.617L131.042 173.133L131.027 173.118ZM126 166.466C127.413 168.608 128.461 170.308 129.189 171.736H129.25C129.038 170.126 128.931 168.122 128.901 165.555L125.985 166.451L126 166.466Z" fill="#2A3246"/>
<path d="M119.88 175.973L115.734 176.368C112.363 176.687 110.191 174.302 109.827 170.536C109.447 166.694 111.269 163.808 114.534 163.49L118.635 163.095L119.88 175.973ZM112.135 170.308C112.393 172.996 113.608 174.758 115.734 174.56L117.45 174.393L116.554 165.099L114.869 165.266C112.803 165.464 111.862 167.575 112.135 170.308Z" fill="#2A3246"/>
<path d="M97.2372 174.03L102.735 174.622L103.114 171.084L97.9358 170.522L98.1332 168.73L103.312 169.292L103.722 165.449L98.1028 164.842L98.3003 162.989L106.182 163.84L104.8 176.703L97.0398 175.867L97.2372 174.015V174.03Z" fill="#2A3246"/>
<path d="M78.9679 170.46L77.1455 169.473L80.6232 162.305C81.1395 161.227 81.504 160.528 81.7926 159.997L81.6559 159.921C81.4737 160.24 81.1092 160.741 80.2891 161.774L76.9937 165.737L75.3991 164.872L76.9025 159.951C77.3126 158.706 77.5404 158.114 77.6922 157.795L77.5556 157.719C77.267 158.25 76.8873 158.934 76.2647 159.966L72.1796 166.8L70.3572 165.813L77.3429 154.879L79.6361 156.124L78.1023 161.014C77.753 162.032 77.4037 162.897 77.1303 163.459L77.2974 163.55C77.6163 163.019 78.1478 162.244 78.8008 161.409L82.0355 157.445L84.3287 158.691L79.0134 170.521L78.9679 170.46Z" fill="#2A3246"/>
<path d="M70.9039 157.597L70.0535 158.6C67.5933 161.516 64.8901 162.26 62.3995 160.149C59.9089 158.038 60.1823 155.259 62.6425 152.343L63.4929 151.341C65.9531 148.425 68.6563 147.681 71.1469 149.792C73.6375 151.902 73.3641 154.682 70.9039 157.597ZM65.3153 152.814L64.4041 153.892C62.5362 156.109 62.2628 157.597 63.5992 158.721C64.9356 159.845 66.348 159.329 68.2159 157.111L69.1271 156.018C70.995 153.801 71.2684 152.313 69.932 151.189C68.5956 150.065 67.1832 150.581 65.3001 152.798L65.3153 152.814Z" fill="#2A3246"/>
<path d="M58.7394 141.652L58.6939 141.591C58.3446 141.971 57.7827 142.411 57.3575 142.761L51.1007 147.666L49.8098 146.011L59.9847 138.022L61.4882 139.936L57.1904 147.863C56.8411 148.501 56.3248 149.215 56.2033 149.352L56.264 149.427C56.5678 149.109 57.0082 148.729 57.403 148.425L64.0547 143.201L65.3455 144.856L55.1706 152.844L53.5305 150.764L57.6764 143.262C58.0712 142.563 58.4813 141.956 58.7242 141.652H58.7394Z" fill="#2A3246"/>
<path d="M46.6664 141.06L44.8136 137.339C43.295 134.302 44.7529 131.416 48.1546 129.73C51.6171 127.999 54.9582 128.667 56.4161 131.598L58.2536 135.289L46.6664 141.06ZM49.1721 131.796C46.7575 132.996 45.5426 134.772 46.4993 136.671L47.2738 138.22L55.6264 134.059L54.867 132.54C53.9407 130.687 51.6475 130.566 49.1721 131.796Z" fill="#2A3246"/>
<path d="M40.3943 119.191L41.7915 124.537L45.2236 123.641L43.9024 118.599L45.6488 118.143L46.9701 123.185L50.7059 122.213L49.2784 116.746L51.0704 116.275L53.075 123.945L40.5614 127.225L38.5872 119.677L40.3792 119.206L40.3943 119.191Z" fill="#2A3246"/>
<path d="M37.5544 113.284L37.3266 108.865C37.19 106.01 38.496 104.309 40.9562 104.187C42.5963 104.111 43.8568 104.947 44.4643 106.481L50.0073 103.337L50.1288 105.812L44.9654 108.683L45.0565 110.626L50.3566 110.353L50.4781 112.631L37.5544 113.284ZM43.3557 108.774C43.2797 107.27 42.49 106.496 41.1232 106.572C39.7261 106.648 39.0123 107.483 39.0883 108.986L39.1794 110.915L43.4468 110.702L43.3557 108.774Z" fill="#2A3246"/>
<path d="M40.6526 90.4278L39.7566 96.1834L43.2646 96.7301L44.0847 91.3997L45.9526 91.6882L45.1326 97.0187L50.6604 97.8691L50.3111 100.117L37.5242 98.1425L38.7695 90.124L40.6374 90.4126L40.6526 90.4278Z" fill="#2A3246"/>
<path d="M41.0017 82.4705L49.1568 85.523C50.6602 86.0849 51.9055 85.7356 52.437 84.3081C52.9686 82.8654 52.2244 81.8631 50.7362 81.3164L42.581 78.2639L43.3859 76.1074L51.5562 79.1599C54.1076 80.1166 55.2617 82.1364 54.2139 84.9459C53.166 87.7402 50.9184 88.621 48.3671 87.6643L40.1968 84.6118L41.0017 82.4554V82.4705Z" fill="#2A3246"/>
<path d="M47.4561 68.5898L56.7805 74.467L59.909 69.501L61.5339 70.5185L57.2058 77.398L46.2563 70.5033L47.4561 68.5898Z" fill="#2A3246"/>
<path d="M69.7801 58.6581C69.2486 57.7925 68.717 56.9117 68.1855 56.046C67.9729 55.6967 67.6844 55.4538 67.2591 55.3778C66.3328 55.1956 65.4064 54.9526 64.48 54.7552C63.7663 54.6033 63.66 54.3603 64.1307 53.7833C64.7534 53.0239 65.4064 52.2798 66.0594 51.5357C66.3024 51.2623 66.4087 50.9889 66.3631 50.5941C66.2568 49.531 66.1961 48.4528 66.1202 47.3898C66.0898 46.9342 66.3176 46.8734 66.6669 46.9949C67.4566 47.2986 68.307 47.5264 69.0208 47.9668C69.9623 48.5439 70.752 48.1946 71.6025 47.8454C72.2555 47.572 72.9085 47.2835 73.5615 47.0101C74.0779 46.7975 74.2145 46.8886 74.1842 47.4657C74.1234 48.5136 74.0627 49.5766 74.0019 50.6245C74.0019 50.7915 73.9716 51.0041 74.0627 51.1256C74.579 51.8394 75.1409 52.5228 75.6876 53.2062C75.8547 53.4036 76.0673 53.5706 76.2191 53.7681C76.6595 54.3451 76.5684 54.5881 75.8547 54.7552C74.8524 54.983 73.8349 55.1956 72.8174 55.4386C72.6351 55.4841 72.4225 55.6512 72.3162 55.8182C71.724 56.7598 71.1621 57.7165 70.585 58.6429C70.2964 59.0985 70.0686 59.0985 69.8105 58.6429L69.7801 58.6581Z" fill="#2A3246"/>
</g>
<defs>
<clipPath id="clip0_10867_9915">
<rect width="215.42" height="207.31" fill="white" transform="translate(0.939941 0.600586)"/>
</clipPath>
</defs>
</svg>