<svg xmlns="http://www.w3.org/2000/svg" width="100" height="117" viewBox="0 0 100 117" fill="none">
<path d="M69.228 26.4652L69.3963 26.4197L66.4956 25.3305C60.9195 23.2366 54.7371 22.2158 48.734 22.91C35.9992 24.3641 29.0756 32.9397 25.445 43.3643C21.8281 53.7493 21.4074 66.1237 21.6951 75.6163L21.6951 75.617C21.8537 80.7371 22.4396 86.3552 24.4076 91.1727C26.3903 96.026 29.7958 100.105 35.5609 102.005L35.5627 102.006C38.1447 102.852 40.8753 103.059 43.537 102.777C52.0441 101.878 58.7979 96.8284 64.7314 91.5927L64.7319 91.5923C73.0815 84.216 80.8953 75.4509 84.4861 64.6948C88.0762 53.9405 86.7045 40.8002 78.5034 32.6408C75.8306 29.9779 72.6133 27.9903 69.228 26.4652Z" fill="#FB693E"/>
<path d="M69.228 26.4652L69.3963 26.4197L66.4956 25.3305C60.9195 23.2366 54.7371 22.2158 48.734 22.91C35.9992 24.3641 29.0756 32.9397 25.445 43.3643C21.8281 53.7493 21.4074 66.1237 21.6951 75.6163L21.6951 75.617C21.8537 80.7371 22.4396 86.3552 24.4076 91.1727C26.3903 96.026 29.7958 100.105 35.5609 102.005L35.5627 102.006C38.1447 102.852 40.8753 103.059 43.537 102.777C52.0441 101.878 58.7979 96.8284 64.7314 91.5927L64.7319 91.5923C73.0815 84.216 80.8953 75.4509 84.4861 64.6948C88.0762 53.9405 86.7045 40.8002 78.5034 32.6408C75.8306 29.9779 72.6133 27.9903 69.228 26.4652Z" stroke="#2A3246" stroke-width="1.99561"/>
<path d="M69.228 26.4652L69.3963 26.4197L66.4956 25.3305C60.9195 23.2366 54.7371 22.2158 48.734 22.91C35.9992 24.3641 29.0756 32.9397 25.445 43.3643C21.8281 53.7493 21.4074 66.1237 21.6951 75.6163L21.6951 75.617C21.8537 80.7371 22.4396 86.3552 24.4076 91.1727C26.3903 96.026 29.7958 100.105 35.5609 102.005L35.5627 102.006C38.1447 102.852 40.8753 103.059 43.537 102.777C52.0441 101.878 58.7979 96.8284 64.7314 91.5927L64.7319 91.5923C73.0815 84.216 80.8953 75.4509 84.4861 64.6948C88.0762 53.9405 86.7045 40.8002 78.5034 32.6408C75.8306 29.9779 72.6133 27.9903 69.228 26.4652Z" stroke="black" stroke-opacity="0.2" stroke-width="1.99561"/>
<path d="M66.492 18.885C65.8295 19.5296 65.297 20.3395 64.9868 21.2314C62.623 18.7674 59.3655 17.3698 55.9612 16.8243C51.9886 16.1878 47.7158 16.6913 44.1761 18.1L44.174 18.1008C42.2589 18.8679 40.6197 20.4754 40.1569 22.616L40.1565 22.6179C39.6522 24.9735 40.6671 26.809 42.1709 28.1242C43.4489 29.2421 45.1287 30.0399 46.7059 30.5953C45.8737 33.748 47.2308 37.408 50.0507 39.1373C52.3039 40.5311 55.1934 40.5179 57.4942 39.4135L57.4942 39.4136L57.5009 39.4103C57.8625 39.2334 58.4377 39.4102 58.6487 40.0007C59.2437 41.6742 60.3403 43.1551 61.5608 44.3438L61.5611 44.3441C63.301 46.0372 65.8007 47.5501 68.5258 47.2251L68.5309 47.2245C70.1616 47.0215 71.6541 45.9825 72.4661 44.6318C72.7845 44.1091 73.3353 43.918 73.814 44.0802L73.8176 44.0813C75.8002 44.7445 78.2751 44.3315 79.8833 42.8098L79.8853 42.808C81.955 40.8388 82.4381 37.8114 81.9065 35.1902C84.3297 34.9971 87.0591 34.5676 89.1081 32.6495L89.1088 32.6488C90.5277 31.3177 91.3665 29.2693 90.8629 27.2357L90.862 27.2323C90.2257 24.701 88.0315 23.9155 86.3954 23.4987C83.1023 22.6553 80.0104 22.9368 77.0076 23.2101C76.5338 23.2532 76.0622 23.2961 75.5924 23.3344C75.5401 22.1689 75.2507 20.9576 74.6667 19.9182C73.901 18.5554 72.6104 17.4722 70.7438 17.2771C70.6463 17.2669 70.5497 17.2712 70.4564 17.2886C68.9256 17.2148 67.5138 17.8911 66.492 18.885Z" fill="#87E1CF"/>
<path d="M66.492 18.885C65.8295 19.5296 65.297 20.3395 64.9868 21.2314C62.623 18.7674 59.3655 17.3698 55.9612 16.8243C51.9886 16.1878 47.7158 16.6913 44.1761 18.1L44.174 18.1008C42.2589 18.8679 40.6197 20.4754 40.1569 22.616L40.1565 22.6179C39.6522 24.9735 40.6671 26.809 42.1709 28.1242C43.4489 29.2421 45.1287 30.0399 46.7059 30.5953C45.8737 33.748 47.2308 37.408 50.0507 39.1373C52.3039 40.5311 55.1934 40.5179 57.4942 39.4135L57.4942 39.4136L57.5009 39.4103C57.8625 39.2334 58.4377 39.4102 58.6487 40.0007C59.2437 41.6742 60.3403 43.1551 61.5608 44.3438L61.5611 44.3441C63.301 46.0372 65.8007 47.5501 68.5258 47.2251L68.5309 47.2245C70.1616 47.0215 71.6541 45.9825 72.4661 44.6318C72.7845 44.1091 73.3353 43.918 73.814 44.0802L73.8176 44.0813C75.8002 44.7445 78.2751 44.3315 79.8833 42.8098L79.8853 42.808C81.955 40.8388 82.4381 37.8114 81.9065 35.1902C84.3297 34.9971 87.0591 34.5676 89.1081 32.6495L89.1088 32.6488C90.5277 31.3177 91.3665 29.2693 90.8629 27.2357L90.862 27.2323C90.2257 24.701 88.0315 23.9155 86.3954 23.4987C83.1023 22.6553 80.0104 22.9368 77.0076 23.2101C76.5338 23.2532 76.0622 23.2961 75.5924 23.3344C75.5401 22.1689 75.2507 20.9576 74.6667 19.9182C73.901 18.5554 72.6104 17.4722 70.7438 17.2771C70.6463 17.2669 70.5497 17.2712 70.4564 17.2886C68.9256 17.2148 67.5138 17.8911 66.492 18.885Z" stroke="#2A3246" stroke-width="1.99561" stroke-linecap="round" stroke-linejoin="round"/>
<path d="M66.492 18.885C65.8295 19.5296 65.297 20.3395 64.9868 21.2314C62.623 18.7674 59.3655 17.3698 55.9612 16.8243C51.9886 16.1878 47.7158 16.6913 44.1761 18.1L44.174 18.1008C42.2589 18.8679 40.6197 20.4754 40.1569 22.616L40.1565 22.6179C39.6522 24.9735 40.6671 26.809 42.1709 28.1242C43.4489 29.2421 45.1287 30.0399 46.7059 30.5953C45.8737 33.748 47.2308 37.408 50.0507 39.1373C52.3039 40.5311 55.1934 40.5179 57.4942 39.4135L57.4942 39.4136L57.5009 39.4103C57.8625 39.2334 58.4377 39.4102 58.6487 40.0007C59.2437 41.6742 60.3403 43.1551 61.5608 44.3438L61.5611 44.3441C63.301 46.0372 65.8007 47.5501 68.5258 47.2251L68.5309 47.2245C70.1616 47.0215 71.6541 45.9825 72.4661 44.6318C72.7845 44.1091 73.3353 43.918 73.814 44.0802L73.8176 44.0813C75.8002 44.7445 78.2751 44.3315 79.8833 42.8098L79.8853 42.808C81.955 40.8388 82.4381 37.8114 81.9065 35.1902C84.3297 34.9971 87.0591 34.5676 89.1081 32.6495L89.1088 32.6488C90.5277 31.3177 91.3665 29.2693 90.8629 27.2357L90.862 27.2323C90.2257 24.701 88.0315 23.9155 86.3954 23.4987C83.1023 22.6553 80.0104 22.9368 77.0076 23.2101C76.5338 23.2532 76.0622 23.2961 75.5924 23.3344C75.5401 22.1689 75.2507 20.9576 74.6667 19.9182C73.901 18.5554 72.6104 17.4722 70.7438 17.2771C70.6463 17.2669 70.5497 17.2712 70.4564 17.2886C68.9256 17.2148 67.5138 17.8911 66.492 18.885Z" stroke="black" stroke-opacity="0.2" stroke-width="1.99561" stroke-linecap="round" stroke-linejoin="round"/>
<path d="M33.3918 73.6859C33.3951 75.52 33.4737 77.3578 33.6261 79.1868" stroke="#2A3246" stroke-width="1.99561" stroke-linecap="round"/>
<path d="M33.3918 73.6859C33.3951 75.52 33.4737 77.3578 33.6261 79.1868" stroke="black" stroke-opacity="0.2" stroke-width="1.99561" stroke-linecap="round"/>
<path d="M28.904 74.7012C28.7655 75.9654 28.8202 77.2818 29.0705 78.5627" stroke="#2A3246" stroke-width="1.99561" stroke-linecap="round"/>
<path d="M28.904 74.7012C28.7655 75.9654 28.8202 77.2818 29.0705 78.5627" stroke="black" stroke-opacity="0.2" stroke-width="1.99561" stroke-linecap="round"/>
<path d="M30.8479 65.1242C30.8917 67.0908 30.8805 69.014 30.7968 70.9581" stroke="#2A3246" stroke-width="1.99561" stroke-linecap="round"/>
<path d="M30.8479 65.1242C30.8917 67.0908 30.8805 69.014 30.7968 70.9581" stroke="black" stroke-opacity="0.2" stroke-width="1.99561" stroke-linecap="round"/>
</svg>