<svg xmlns="http://www.w3.org/2000/svg" fill="none" viewBox="0 0 111 110" height="110" width="111">
<path fill="#FF8460" d="M47.3064 5.05292C48.4002 3.99915 49.8521 3.94423 51.0989 4.26692C52.4211 4.60915 53.7136 5.40864 54.6675 6.25187C55.5494 7.0315 56.4515 7.80436 57.3678 8.2885C58.2708 8.76547 59.0302 8.88056 59.7197 8.59127L59.7215 8.59011L59.9015 8.50456C60.3148 8.28448 60.6904 7.91916 61.2203 7.41413C61.762 6.89779 62.4929 6.21049 63.4965 5.93344L63.4984 5.93228L63.7236 5.87855C64.8362 5.64335 65.7921 5.96053 66.5888 6.5181C67.3885 7.07793 68.0671 7.90645 68.6589 8.66231C69.2852 9.46232 69.8323 10.2044 70.4461 10.813C71.0492 11.411 71.6204 11.7772 72.2263 11.8927L72.2253 11.8928C72.7116 11.9852 73.266 11.9208 73.9251 11.7352C74.6013 11.5447 75.2545 11.27 76.0168 10.9872C77.3255 10.5017 79.1567 9.89152 80.7146 11.0673L80.8648 11.1869L80.8659 11.1878L80.9896 11.2972C82.228 12.4459 82.2256 14.1392 82.2181 15.3373C82.2138 16.0307 82.1965 16.6231 82.2597 17.183C82.3211 17.7261 82.45 18.1426 82.6765 18.4675L82.6775 18.4675C83.0629 19.0154 83.6941 19.2997 84.6315 19.3808C85.5862 19.4633 86.6719 19.3188 87.7702 19.166L87.7711 19.1659L88.301 19.1055C89.5081 18.9983 90.5176 19.1299 91.3349 19.5468C92.3037 20.0411 92.8502 20.8574 93.1598 21.7516C93.4585 22.6143 93.557 23.6054 93.6124 24.5566C93.671 25.5629 93.682 26.4953 93.7741 27.4856C93.8899 28.6523 94.034 29.458 94.5171 29.933L94.6085 30.0143C95.0866 30.4037 95.8553 30.5434 96.8466 30.5354C97.8181 30.5275 99.2244 30.4276 100.456 30.9864L100.69 31.1025C101.82 31.7143 102.315 32.7644 102.387 33.8892C102.459 35.0211 102.116 36.2628 101.645 37.3925C101.166 38.5417 100.513 39.6729 99.8631 40.6161C99.4454 41.2227 99.0096 41.7767 98.604 42.2198C98.6745 42.251 98.749 42.2851 98.8289 42.3202C99.0225 42.4052 99.2523 42.5061 99.4689 42.6189L99.6786 42.7355L99.688 42.7405L100.17 43.0166C100.66 43.2841 101.177 43.5299 101.729 43.7963C102.446 44.1428 103.217 44.5228 103.944 45.0027C105.351 45.9306 106.779 47.4905 106.907 49.4608L106.915 49.6523C106.945 50.9988 106.378 52.1288 105.681 53.0592C104.995 53.9745 104.103 54.7969 103.384 55.4899C102.682 56.1666 102.036 56.9541 101.659 57.7452C101.285 58.528 101.218 59.2111 101.473 59.8077L101.555 59.9734C101.762 60.3544 102.096 60.7048 102.559 61.1987C103.003 61.6723 103.587 62.3017 103.887 63.1387L103.943 63.3088L103.946 63.3164L104.01 63.573C104.283 64.8472 103.788 65.9862 103.104 66.863C102.379 67.7914 101.358 68.545 100.439 69.0828C99.5695 69.5919 98.7236 70.1101 98.0907 70.713C97.4674 71.3068 97.1586 71.8805 97.1588 72.4991L97.1581 72.5021C97.1573 72.8868 97.2821 73.2914 97.5283 73.7618C97.7816 74.2456 98.1146 74.7135 98.4942 75.2696C99.1732 76.2646 100.126 77.6764 99.7178 79.3485L99.7188 79.3494C99.4077 80.6325 98.4628 81.4121 97.4782 81.8727C96.5027 82.329 95.3726 82.5327 94.4176 82.6274C93.5125 82.7171 92.6318 82.8384 91.9057 83.1059C91.192 83.3689 90.7513 83.7263 90.539 84.2187L90.5391 84.2197C89.901 85.6972 90.154 87.2366 90.3042 89.2871C90.385 90.3904 90.1937 91.6521 89.6755 92.6968C89.1535 93.7489 88.2188 94.7122 86.797 94.8348L86.7873 94.8357C86.0249 94.8936 85.3485 94.6786 84.7993 94.4518C84.5253 94.3386 84.254 94.2098 84.0176 94.0994C83.8944 94.0418 83.7779 93.9883 83.6661 93.9389L83.3406 93.8034L83.3395 93.8025C81.9678 93.2763 80.3478 93.5894 79.0295 94.5063C77.7111 95.4235 76.8505 96.8371 76.8606 98.308C76.8636 98.491 76.8869 98.9217 76.8816 99.2029C76.8758 99.5057 76.844 99.8663 76.7172 100.238L76.6564 100.397C76.1575 101.598 75.0209 102.014 74.0312 102.04C73.1729 102.062 72.2658 101.814 71.5208 101.404L71.2119 101.219C70.8612 100.99 70.521 100.735 70.2128 100.505C69.8946 100.267 69.606 100.052 69.3164 99.8662C68.8084 99.5399 68.3785 99.3556 67.9581 99.3207L67.7789 99.3149C67.2816 99.3244 66.8473 99.5298 66.388 99.9453C65.9054 100.382 65.4647 100.986 64.9543 101.709C64.4709 102.393 63.9188 103.195 63.2697 103.841C62.6464 104.461 61.8712 105.004 60.8799 105.196L60.6791 105.229C59.5923 105.383 58.6506 105.069 57.849 104.596C57.0711 104.137 56.3674 103.491 55.7473 102.916C55.0958 102.312 54.5278 101.777 53.9315 101.378C53.4233 101.038 52.9548 100.841 52.4814 100.797L52.2783 100.788C51.7737 100.788 51.2601 100.966 50.6828 101.304C50.0914 101.651 49.5252 102.106 48.8693 102.612C47.6887 103.521 46.0516 104.766 44.0616 104.225L44.0617 104.226C42.185 103.719 41.3471 101.956 40.7416 100.689C40.4057 99.9857 40.1224 99.371 39.7745 98.8415C39.4779 98.3901 39.1722 98.0624 38.8205 97.8497L38.6669 97.7658C38.1305 97.502 37.4912 97.4727 36.6855 97.6363C35.8615 97.8038 35.0037 98.1395 34.0415 98.495C33.1317 98.8311 32.1037 99.1946 31.1137 99.2728C30.0686 99.3553 28.992 99.1253 28.0964 98.2264L28.0942 98.2236C27.0726 97.1908 26.9351 95.8231 26.8841 94.7469C26.8308 93.6215 26.8575 92.7719 26.6143 92.0239L26.5623 91.876C26.1199 90.7181 25.0711 90.0862 23.5187 89.8606C21.9583 89.6339 20.0922 89.8605 18.4557 90.2543L18.4568 90.2552C17.889 90.3925 17.2538 90.4472 16.6996 90.1604C16.0839 89.8416 15.8577 89.2633 15.7724 88.8156C15.6905 88.3853 15.7021 87.8948 15.7188 87.4716C15.737 87.0087 15.7655 86.5683 15.7614 86.0896C15.7513 84.9224 16.0192 83.8175 16.2764 82.8295C16.5436 81.8037 16.7947 80.9145 16.8698 80.0033C16.9353 79.1812 16.7946 78.5697 16.4835 78.2536L16.479 78.2482C16.2613 78.0241 15.9291 77.8827 15.438 77.7547L14.8927 77.6291C14.2926 77.503 13.6922 77.3734 13.095 77.2449C12.4972 77.1163 11.902 76.9886 11.3075 76.8637L11.3065 76.8638C10.7833 76.7535 10.1228 76.5798 9.54226 76.2614C8.95406 75.9387 8.33605 75.4021 8.13055 74.5328L8.13046 74.5318C7.92732 73.6819 8.23921 72.8724 8.38927 72.4394L8.38995 72.4364L9.44873 69.4346C9.80242 68.4356 10.1547 67.4382 10.5042 66.4389L10.505 66.4369L10.5457 66.2935C10.5713 66.1669 10.556 66.0883 10.5389 66.0361C10.5104 65.9495 10.4372 65.8244 10.2543 65.66C9.85148 65.2979 9.21803 64.9924 8.4119 64.5962C7.71387 64.2532 6.78812 63.841 6.01186 63.312C5.21554 62.7692 4.43639 62.016 4.10461 60.9004L4.10297 60.8937C3.71212 59.544 4.14537 58.3113 4.76861 57.3214C5.38525 56.3421 6.26578 55.4726 6.99565 54.7798C7.67614 54.134 8.31228 53.3518 8.65859 52.5866C9.00179 51.8281 9.00267 51.2379 8.7128 50.7668L8.71154 50.7639C8.59187 50.5682 8.40912 50.3818 8.13751 50.1604C8.00144 50.0495 7.85915 49.9415 7.6953 49.8175C7.53739 49.698 7.36017 49.5639 7.18775 49.4194L7.18765 49.4184C6.19334 48.5894 5.43288 47.5003 4.9872 46.2959L4.98701 46.294C4.55999 45.1308 4.45848 44.0753 4.90488 43.0882C5.32476 42.1601 6.15385 41.4775 7.08549 40.8506C8.08733 40.1764 9.20721 39.7092 10.1808 39.2769C11.1907 38.8285 12.0741 38.4067 12.8151 37.8049L12.8259 37.796L12.9679 37.674C13.0071 37.6371 13.0383 37.6038 13.063 37.5733C13.0957 37.5329 13.1068 37.5063 13.112 37.4939C13.1127 37.4762 13.1124 37.4387 13.0939 37.371C13.0791 37.3165 13.0584 37.2567 13.0296 37.187L12.918 36.942L12.9055 36.9157C11.9904 34.8591 11.4082 32.6406 11.1988 30.397C11.1486 29.8871 11.1331 29.2654 11.2666 28.665C11.4027 28.0532 11.7138 27.3867 12.3718 26.9334L12.5827 26.8045C13.0785 26.5342 13.6092 26.4606 13.9079 26.4122L16.9248 25.9091C17.9306 25.7403 18.9372 25.5695 19.9465 25.3958L19.9553 25.3949L20.0898 25.3659C20.1009 25.3628 20.1105 25.3588 20.1192 25.3561C20.1406 25.2413 20.1485 25.0884 20.16 24.7868C20.1706 24.5065 20.1859 24.1424 20.2534 23.7393C20.3452 23.1911 20.3322 22.6069 20.2843 21.9413C20.239 21.3124 20.1551 20.5483 20.1558 19.8226C20.1571 18.3547 20.6496 16.3058 22.3752 15.431L22.3761 15.4299L22.5647 15.3425C23.2594 15.0431 24.0042 14.9904 24.6351 14.9941L25.2707 15.0106L25.2796 15.0117L25.6192 15.032C26.3905 15.0914 27.0271 15.2207 27.588 15.3207C28.2311 15.4354 28.8133 15.5205 29.5508 15.4903L30.491 15.4521L30.4923 15.4647L31.5137 15.4234C31.6837 14.6877 31.8538 13.9505 32.0227 13.212C32.2482 12.2265 32.4747 11.2388 32.7041 10.2535L32.7061 10.2444L32.8044 9.85001C32.9257 9.40242 33.1309 8.82526 33.5577 8.37008L33.5629 8.36368L33.5691 8.35717C34.4066 7.49482 35.6209 7.45397 36.4294 7.55168L36.4304 7.55158C37.4509 7.66917 38.3949 7.99305 39.2502 8.31828C40.1392 8.65634 40.8981 8.98056 41.706 9.20447C42.4592 9.41321 43.2785 9.47839 43.9884 9.35122C44.6922 9.22509 45.2222 8.92593 45.549 8.46254L45.5516 8.45837L45.6352 8.33134C45.8212 8.02546 45.9492 7.65139 46.1313 7.1291C46.3183 6.59299 46.5717 5.87567 47.0904 5.2804L47.0931 5.27719L47.3064 5.05292Z"/>
<path stroke-width="1.99561" stroke="#2A3246" d="M47.3064 5.05292C48.4002 3.99915 49.8521 3.94423 51.0989 4.26692C52.4211 4.60915 53.7136 5.40864 54.6675 6.25187C55.5494 7.0315 56.4515 7.80436 57.3678 8.2885C58.2708 8.76547 59.0302 8.88056 59.7197 8.59127L59.7215 8.59011L59.9015 8.50456C60.3148 8.28448 60.6904 7.91916 61.2203 7.41413C61.762 6.89779 62.4929 6.21049 63.4965 5.93344L63.4984 5.93228L63.7236 5.87855C64.8362 5.64335 65.7921 5.96053 66.5888 6.5181C67.3885 7.07793 68.0671 7.90645 68.6589 8.66231C69.2852 9.46232 69.8323 10.2044 70.4461 10.813C71.0492 11.411 71.6204 11.7772 72.2263 11.8927L72.2253 11.8928C72.7116 11.9852 73.266 11.9208 73.9251 11.7352C74.6013 11.5447 75.2545 11.27 76.0168 10.9872C77.3255 10.5017 79.1567 9.89152 80.7146 11.0673L80.8648 11.1869L80.8659 11.1878L80.9896 11.2972C82.228 12.4459 82.2256 14.1392 82.2181 15.3373C82.2138 16.0307 82.1965 16.6231 82.2597 17.183C82.3211 17.7261 82.45 18.1426 82.6765 18.4675L82.6775 18.4675C83.0629 19.0154 83.6941 19.2997 84.6315 19.3808C85.5862 19.4633 86.6719 19.3188 87.7702 19.166L87.7711 19.1659L88.301 19.1055C89.5081 18.9983 90.5176 19.1299 91.3349 19.5468C92.3037 20.0411 92.8502 20.8574 93.1598 21.7516C93.4585 22.6143 93.557 23.6054 93.6124 24.5566C93.671 25.5629 93.682 26.4953 93.7741 27.4856C93.8899 28.6523 94.034 29.458 94.5171 29.933L94.6085 30.0143C95.0866 30.4037 95.8553 30.5434 96.8466 30.5354C97.8181 30.5275 99.2244 30.4276 100.456 30.9864L100.69 31.1025C101.82 31.7143 102.315 32.7644 102.387 33.8892C102.459 35.0211 102.116 36.2628 101.645 37.3925C101.166 38.5417 100.513 39.6729 99.8631 40.6161C99.4454 41.2227 99.0096 41.7767 98.604 42.2198C98.6745 42.251 98.749 42.2851 98.8289 42.3202C99.0225 42.4052 99.2523 42.5061 99.4689 42.6189L99.6786 42.7355L99.688 42.7405L100.17 43.0166C100.66 43.2841 101.177 43.5299 101.729 43.7963C102.446 44.1428 103.217 44.5228 103.944 45.0027C105.351 45.9306 106.779 47.4905 106.907 49.4608L106.915 49.6523C106.945 50.9988 106.378 52.1288 105.681 53.0592C104.995 53.9745 104.103 54.7969 103.384 55.4899C102.682 56.1666 102.036 56.9541 101.659 57.7452C101.285 58.528 101.218 59.2111 101.473 59.8077L101.555 59.9734C101.762 60.3544 102.096 60.7048 102.559 61.1987C103.003 61.6723 103.587 62.3017 103.887 63.1387L103.943 63.3088L103.946 63.3164L104.01 63.573C104.283 64.8472 103.788 65.9862 103.104 66.863C102.379 67.7914 101.358 68.545 100.439 69.0828C99.5695 69.5919 98.7236 70.1101 98.0907 70.713C97.4674 71.3068 97.1586 71.8805 97.1588 72.4991L97.1581 72.5021C97.1573 72.8868 97.2821 73.2914 97.5283 73.7618C97.7816 74.2456 98.1146 74.7135 98.4942 75.2696C99.1732 76.2646 100.126 77.6764 99.7178 79.3485L99.7188 79.3494C99.4077 80.6325 98.4628 81.4121 97.4782 81.8727C96.5027 82.329 95.3726 82.5327 94.4176 82.6274C93.5125 82.7171 92.6318 82.8384 91.9057 83.1059C91.192 83.3689 90.7513 83.7263 90.539 84.2187L90.5391 84.2197C89.901 85.6972 90.154 87.2366 90.3042 89.2871C90.385 90.3904 90.1937 91.6521 89.6755 92.6968C89.1535 93.7489 88.2188 94.7122 86.797 94.8348L86.7873 94.8357C86.0249 94.8936 85.3485 94.6786 84.7993 94.4518C84.5253 94.3386 84.254 94.2098 84.0176 94.0994C83.8944 94.0418 83.7779 93.9883 83.6661 93.9389L83.3406 93.8034L83.3395 93.8025C81.9678 93.2763 80.3478 93.5894 79.0295 94.5063C77.7111 95.4235 76.8505 96.8371 76.8606 98.308C76.8636 98.491 76.8869 98.9217 76.8816 99.2029C76.8758 99.5057 76.844 99.8663 76.7172 100.238L76.6564 100.397C76.1575 101.598 75.0209 102.014 74.0312 102.04C73.1729 102.062 72.2658 101.814 71.5208 101.404L71.2119 101.219C70.8612 100.99 70.521 100.735 70.2128 100.505C69.8946 100.267 69.606 100.052 69.3164 99.8662C68.8084 99.5399 68.3785 99.3556 67.9581 99.3207L67.7789 99.3149C67.2816 99.3244 66.8473 99.5298 66.388 99.9453C65.9054 100.382 65.4647 100.986 64.9543 101.709C64.4709 102.393 63.9188 103.195 63.2697 103.841C62.6464 104.461 61.8712 105.004 60.8799 105.196L60.6791 105.229C59.5923 105.383 58.6506 105.069 57.849 104.596C57.0711 104.137 56.3674 103.491 55.7473 102.916C55.0958 102.312 54.5278 101.777 53.9315 101.378C53.4233 101.038 52.9548 100.841 52.4814 100.797L52.2783 100.788C51.7737 100.788 51.2601 100.966 50.6828 101.304C50.0914 101.651 49.5252 102.106 48.8693 102.612C47.6887 103.521 46.0516 104.766 44.0616 104.225L44.0617 104.226C42.185 103.719 41.3471 101.956 40.7416 100.689C40.4057 99.9857 40.1224 99.371 39.7745 98.8415C39.4779 98.3901 39.1722 98.0624 38.8205 97.8497L38.6669 97.7658C38.1305 97.502 37.4912 97.4727 36.6855 97.6363C35.8615 97.8038 35.0037 98.1395 34.0415 98.495C33.1317 98.8311 32.1037 99.1946 31.1137 99.2728C30.0686 99.3553 28.992 99.1253 28.0964 98.2264L28.0942 98.2236C27.0726 97.1908 26.9351 95.8231 26.8841 94.7469C26.8308 93.6215 26.8575 92.7719 26.6143 92.0239L26.5623 91.876C26.1199 90.7181 25.0711 90.0862 23.5187 89.8606C21.9583 89.6339 20.0922 89.8605 18.4557 90.2543L18.4568 90.2552C17.889 90.3925 17.2538 90.4472 16.6996 90.1604C16.0839 89.8416 15.8577 89.2633 15.7724 88.8156C15.6905 88.3853 15.7021 87.8948 15.7188 87.4716C15.737 87.0087 15.7655 86.5683 15.7614 86.0896C15.7513 84.9224 16.0192 83.8175 16.2764 82.8295C16.5436 81.8037 16.7947 80.9145 16.8698 80.0033C16.9353 79.1812 16.7946 78.5697 16.4835 78.2536L16.479 78.2482C16.2613 78.0241 15.9291 77.8827 15.438 77.7547L14.8927 77.6291C14.2926 77.503 13.6922 77.3734 13.095 77.2449C12.4972 77.1163 11.902 76.9886 11.3075 76.8637L11.3065 76.8638C10.7833 76.7535 10.1228 76.5798 9.54226 76.2614C8.95406 75.9387 8.33605 75.4021 8.13055 74.5328L8.13046 74.5318C7.92732 73.6819 8.23921 72.8724 8.38927 72.4394L8.38995 72.4364L9.44873 69.4346C9.80242 68.4356 10.1547 67.4382 10.5042 66.4389L10.505 66.4369L10.5457 66.2935C10.5713 66.1669 10.556 66.0883 10.5389 66.0361C10.5104 65.9495 10.4372 65.8244 10.2543 65.66C9.85148 65.2979 9.21803 64.9924 8.4119 64.5962C7.71387 64.2532 6.78812 63.841 6.01186 63.312C5.21554 62.7692 4.43639 62.016 4.10461 60.9004L4.10297 60.8937C3.71212 59.544 4.14537 58.3113 4.76861 57.3214C5.38525 56.3421 6.26578 55.4726 6.99565 54.7798C7.67614 54.134 8.31228 53.3518 8.65859 52.5866C9.00179 51.8281 9.00267 51.2379 8.7128 50.7668L8.71154 50.7639C8.59187 50.5682 8.40912 50.3818 8.13751 50.1604C8.00144 50.0495 7.85915 49.9415 7.6953 49.8175C7.53739 49.698 7.36017 49.5639 7.18775 49.4194L7.18765 49.4184C6.19334 48.5894 5.43288 47.5003 4.9872 46.2959L4.98701 46.294C4.55999 45.1308 4.45848 44.0753 4.90488 43.0882C5.32476 42.1601 6.15385 41.4775 7.08549 40.8506C8.08733 40.1764 9.20721 39.7092 10.1808 39.2769C11.1907 38.8285 12.0741 38.4067 12.8151 37.8049L12.8259 37.796L12.9679 37.674C13.0071 37.6371 13.0383 37.6038 13.063 37.5733C13.0957 37.5329 13.1068 37.5063 13.112 37.4939C13.1127 37.4762 13.1124 37.4387 13.0939 37.371C13.0791 37.3165 13.0584 37.2567 13.0296 37.187L12.918 36.942L12.9055 36.9157C11.9904 34.8591 11.4082 32.6406 11.1988 30.397C11.1486 29.8871 11.1331 29.2654 11.2666 28.665C11.4027 28.0532 11.7138 27.3867 12.3718 26.9334L12.5827 26.8045C13.0785 26.5342 13.6092 26.4606 13.9079 26.4122L16.9248 25.9091C17.9306 25.7403 18.9372 25.5695 19.9465 25.3958L19.9553 25.3949L20.0898 25.3659C20.1009 25.3628 20.1105 25.3588 20.1192 25.3561C20.1406 25.2413 20.1485 25.0884 20.16 24.7868C20.1706 24.5065 20.1859 24.1424 20.2534 23.7393C20.3452 23.1911 20.3322 22.6069 20.2843 21.9413C20.239 21.3124 20.1551 20.5483 20.1558 19.8226C20.1571 18.3547 20.6496 16.3058 22.3752 15.431L22.3761 15.4299L22.5647 15.3425C23.2594 15.0431 24.0042 14.9904 24.6351 14.9941L25.2707 15.0106L25.2796 15.0117L25.6192 15.032C26.3905 15.0914 27.0271 15.2207 27.588 15.3207C28.2311 15.4354 28.8133 15.5205 29.5508 15.4903L30.491 15.4521L30.4923 15.4647L31.5137 15.4234C31.6837 14.6877 31.8538 13.9505 32.0227 13.212C32.2482 12.2265 32.4747 11.2388 32.7041 10.2535L32.7061 10.2444L32.8044 9.85001C32.9257 9.40242 33.1309 8.82526 33.5577 8.37008L33.5629 8.36368L33.5691 8.35717C34.4066 7.49482 35.6209 7.45397 36.4294 7.55168L36.4304 7.55158C37.4509 7.66917 38.3949 7.99305 39.2502 8.31828C40.1392 8.65634 40.8981 8.98056 41.706 9.20447C42.4592 9.41321 43.2785 9.47839 43.9884 9.35122C44.6922 9.22509 45.2222 8.92593 45.549 8.46254L45.5516 8.45837L45.6352 8.33134C45.8212 8.02546 45.9492 7.65139 46.1313 7.1291C46.3183 6.59299 46.5717 5.87567 47.0904 5.2804L47.0931 5.27719L47.3064 5.05292Z"/>
<path stroke-width="1.99561" stroke-opacity="0.2" stroke="black" d="M47.3064 5.05292C48.4002 3.99915 49.8521 3.94423 51.0989 4.26692C52.4211 4.60915 53.7136 5.40864 54.6675 6.25187C55.5494 7.0315 56.4515 7.80436 57.3678 8.2885C58.2708 8.76547 59.0302 8.88056 59.7197 8.59127L59.7215 8.59011L59.9015 8.50456C60.3148 8.28448 60.6904 7.91916 61.2203 7.41413C61.762 6.89779 62.4929 6.21049 63.4965 5.93344L63.4984 5.93228L63.7236 5.87855C64.8362 5.64335 65.7921 5.96053 66.5888 6.5181C67.3885 7.07793 68.0671 7.90645 68.6589 8.66231C69.2852 9.46232 69.8323 10.2044 70.4461 10.813C71.0492 11.411 71.6204 11.7772 72.2263 11.8927L72.2253 11.8928C72.7116 11.9852 73.266 11.9208 73.9251 11.7352C74.6013 11.5447 75.2545 11.27 76.0168 10.9872C77.3255 10.5017 79.1567 9.89152 80.7146 11.0673L80.8648 11.1869L80.8659 11.1878L80.9896 11.2972C82.228 12.4459 82.2256 14.1392 82.2181 15.3373C82.2138 16.0307 82.1965 16.6231 82.2597 17.183C82.3211 17.7261 82.45 18.1426 82.6765 18.4675L82.6775 18.4675C83.0629 19.0154 83.6941 19.2997 84.6315 19.3808C85.5862 19.4633 86.6719 19.3188 87.7702 19.166L87.7711 19.1659L88.301 19.1055C89.5081 18.9983 90.5176 19.1299 91.3349 19.5468C92.3037 20.0411 92.8502 20.8574 93.1598 21.7516C93.4585 22.6143 93.557 23.6054 93.6124 24.5566C93.671 25.5629 93.682 26.4953 93.7741 27.4856C93.8899 28.6523 94.034 29.458 94.5171 29.933L94.6085 30.0143C95.0866 30.4037 95.8553 30.5434 96.8466 30.5354C97.8181 30.5275 99.2244 30.4276 100.456 30.9864L100.69 31.1025C101.82 31.7143 102.315 32.7644 102.387 33.8892C102.459 35.0211 102.116 36.2628 101.645 37.3925C101.166 38.5417 100.513 39.6729 99.8631 40.6161C99.4454 41.2227 99.0096 41.7767 98.604 42.2198C98.6745 42.251 98.749 42.2851 98.8289 42.3202C99.0225 42.4052 99.2523 42.5061 99.4689 42.6189L99.6786 42.7355L99.688 42.7405L100.17 43.0166C100.66 43.2841 101.177 43.5299 101.729 43.7963C102.446 44.1428 103.217 44.5228 103.944 45.0027C105.351 45.9306 106.779 47.4905 106.907 49.4608L106.915 49.6523C106.945 50.9988 106.378 52.1288 105.681 53.0592C104.995 53.9745 104.103 54.7969 103.384 55.4899C102.682 56.1666 102.036 56.9541 101.659 57.7452C101.285 58.528 101.218 59.2111 101.473 59.8077L101.555 59.9734C101.762 60.3544 102.096 60.7048 102.559 61.1987C103.003 61.6723 103.587 62.3017 103.887 63.1387L103.943 63.3088L103.946 63.3164L104.01 63.573C104.283 64.8472 103.788 65.9862 103.104 66.863C102.379 67.7914 101.358 68.545 100.439 69.0828C99.5695 69.5919 98.7236 70.1101 98.0907 70.713C97.4674 71.3068 97.1586 71.8805 97.1588 72.4991L97.1581 72.5021C97.1573 72.8868 97.2821 73.2914 97.5283 73.7618C97.7816 74.2456 98.1146 74.7135 98.4942 75.2696C99.1732 76.2646 100.126 77.6764 99.7178 79.3485L99.7188 79.3494C99.4077 80.6325 98.4628 81.4121 97.4782 81.8727C96.5027 82.329 95.3726 82.5327 94.4176 82.6274C93.5125 82.7171 92.6318 82.8384 91.9057 83.1059C91.192 83.3689 90.7513 83.7263 90.539 84.2187L90.5391 84.2197C89.901 85.6972 90.154 87.2366 90.3042 89.2871C90.385 90.3904 90.1937 91.6521 89.6755 92.6968C89.1535 93.7489 88.2188 94.7122 86.797 94.8348L86.7873 94.8357C86.0249 94.8936 85.3485 94.6786 84.7993 94.4518C84.5253 94.3386 84.254 94.2098 84.0176 94.0994C83.8944 94.0418 83.7779 93.9883 83.6661 93.9389L83.3406 93.8034L83.3395 93.8025C81.9678 93.2763 80.3478 93.5894 79.0295 94.5063C77.7111 95.4235 76.8505 96.8371 76.8606 98.308C76.8636 98.491 76.8869 98.9217 76.8816 99.2029C76.8758 99.5057 76.844 99.8663 76.7172 100.238L76.6564 100.397C76.1575 101.598 75.0209 102.014 74.0312 102.04C73.1729 102.062 72.2658 101.814 71.5208 101.404L71.2119 101.219C70.8612 100.99 70.521 100.735 70.2128 100.505C69.8946 100.267 69.606 100.052 69.3164 99.8662C68.8084 99.5399 68.3785 99.3556 67.9581 99.3207L67.7789 99.3149C67.2816 99.3244 66.8473 99.5298 66.388 99.9453C65.9054 100.382 65.4647 100.986 64.9543 101.709C64.4709 102.393 63.9188 103.195 63.2697 103.841C62.6464 104.461 61.8712 105.004 60.8799 105.196L60.6791 105.229C59.5923 105.383 58.6506 105.069 57.849 104.596C57.0711 104.137 56.3674 103.491 55.7473 102.916C55.0958 102.312 54.5278 101.777 53.9315 101.378C53.4233 101.038 52.9548 100.841 52.4814 100.797L52.2783 100.788C51.7737 100.788 51.2601 100.966 50.6828 101.304C50.0914 101.651 49.5252 102.106 48.8693 102.612C47.6887 103.521 46.0516 104.766 44.0616 104.225L44.0617 104.226C42.185 103.719 41.3471 101.956 40.7416 100.689C40.4057 99.9857 40.1224 99.371 39.7745 98.8415C39.4779 98.3901 39.1722 98.0624 38.8205 97.8497L38.6669 97.7658C38.1305 97.502 37.4912 97.4727 36.6855 97.6363C35.8615 97.8038 35.0037 98.1395 34.0415 98.495C33.1317 98.8311 32.1037 99.1946 31.1137 99.2728C30.0686 99.3553 28.992 99.1253 28.0964 98.2264L28.0942 98.2236C27.0726 97.1908 26.9351 95.8231 26.8841 94.7469C26.8308 93.6215 26.8575 92.7719 26.6143 92.0239L26.5623 91.876C26.1199 90.7181 25.0711 90.0862 23.5187 89.8606C21.9583 89.6339 20.0922 89.8605 18.4557 90.2543L18.4568 90.2552C17.889 90.3925 17.2538 90.4472 16.6996 90.1604C16.0839 89.8416 15.8577 89.2633 15.7724 88.8156C15.6905 88.3853 15.7021 87.8948 15.7188 87.4716C15.737 87.0087 15.7655 86.5683 15.7614 86.0896C15.7513 84.9224 16.0192 83.8175 16.2764 82.8295C16.5436 81.8037 16.7947 80.9145 16.8698 80.0033C16.9353 79.1812 16.7946 78.5697 16.4835 78.2536L16.479 78.2482C16.2613 78.0241 15.9291 77.8827 15.438 77.7547L14.8927 77.6291C14.2926 77.503 13.6922 77.3734 13.095 77.2449C12.4972 77.1163 11.902 76.9886 11.3075 76.8637L11.3065 76.8638C10.7833 76.7535 10.1228 76.5798 9.54226 76.2614C8.95406 75.9387 8.33605 75.4021 8.13055 74.5328L8.13046 74.5318C7.92732 73.6819 8.23921 72.8724 8.38927 72.4394L8.38995 72.4364L9.44873 69.4346C9.80242 68.4356 10.1547 67.4382 10.5042 66.4389L10.505 66.4369L10.5457 66.2935C10.5713 66.1669 10.556 66.0883 10.5389 66.0361C10.5104 65.9495 10.4372 65.8244 10.2543 65.66C9.85148 65.2979 9.21803 64.9924 8.4119 64.5962C7.71387 64.2532 6.78812 63.841 6.01186 63.312C5.21554 62.7692 4.43639 62.016 4.10461 60.9004L4.10297 60.8937C3.71212 59.544 4.14537 58.3113 4.76861 57.3214C5.38525 56.3421 6.26578 55.4726 6.99565 54.7798C7.67614 54.134 8.31228 53.3518 8.65859 52.5866C9.00179 51.8281 9.00267 51.2379 8.7128 50.7668L8.71154 50.7639C8.59187 50.5682 8.40912 50.3818 8.13751 50.1604C8.00144 50.0495 7.85915 49.9415 7.6953 49.8175C7.53739 49.698 7.36017 49.5639 7.18775 49.4194L7.18765 49.4184C6.19334 48.5894 5.43288 47.5003 4.9872 46.2959L4.98701 46.294C4.55999 45.1308 4.45848 44.0753 4.90488 43.0882C5.32476 42.1601 6.15385 41.4775 7.08549 40.8506C8.08733 40.1764 9.20721 39.7092 10.1808 39.2769C11.1907 38.8285 12.0741 38.4067 12.8151 37.8049L12.8259 37.796L12.9679 37.674C13.0071 37.6371 13.0383 37.6038 13.063 37.5733C13.0957 37.5329 13.1068 37.5063 13.112 37.4939C13.1127 37.4762 13.1124 37.4387 13.0939 37.371C13.0791 37.3165 13.0584 37.2567 13.0296 37.187L12.918 36.942L12.9055 36.9157C11.9904 34.8591 11.4082 32.6406 11.1988 30.397C11.1486 29.8871 11.1331 29.2654 11.2666 28.665C11.4027 28.0532 11.7138 27.3867 12.3718 26.9334L12.5827 26.8045C13.0785 26.5342 13.6092 26.4606 13.9079 26.4122L16.9248 25.9091C17.9306 25.7403 18.9372 25.5695 19.9465 25.3958L19.9553 25.3949L20.0898 25.3659C20.1009 25.3628 20.1105 25.3588 20.1192 25.3561C20.1406 25.2413 20.1485 25.0884 20.16 24.7868C20.1706 24.5065 20.1859 24.1424 20.2534 23.7393C20.3452 23.1911 20.3322 22.6069 20.2843 21.9413C20.239 21.3124 20.1551 20.5483 20.1558 19.8226C20.1571 18.3547 20.6496 16.3058 22.3752 15.431L22.3761 15.4299L22.5647 15.3425C23.2594 15.0431 24.0042 14.9904 24.6351 14.9941L25.2707 15.0106L25.2796 15.0117L25.6192 15.032C26.3905 15.0914 27.0271 15.2207 27.588 15.3207C28.2311 15.4354 28.8133 15.5205 29.5508 15.4903L30.491 15.4521L30.4923 15.4647L31.5137 15.4234C31.6837 14.6877 31.8538 13.9505 32.0227 13.212C32.2482 12.2265 32.4747 11.2388 32.7041 10.2535L32.7061 10.2444L32.8044 9.85001C32.9257 9.40242 33.1309 8.82526 33.5577 8.37008L33.5629 8.36368L33.5691 8.35717C34.4066 7.49482 35.6209 7.45397 36.4294 7.55168L36.4304 7.55158C37.4509 7.66917 38.3949 7.99305 39.2502 8.31828C40.1392 8.65634 40.8981 8.98056 41.706 9.20447C42.4592 9.41321 43.2785 9.47839 43.9884 9.35122C44.6922 9.22509 45.2222 8.92593 45.549 8.46254L45.5516 8.45837L45.6352 8.33134C45.8212 8.02546 45.9492 7.65139 46.1313 7.1291C46.3183 6.59299 46.5717 5.87567 47.0904 5.2804L47.0931 5.27719L47.3064 5.05292Z"/>
<path fill="#FEE358" d="M18.6947 46.6655C16.3741 58.3311 19.6299 70.8831 26.9035 80.2864C29.0068 83.0069 31.4572 85.5021 34.3443 87.3936C39.8199 90.9897 46.536 92.1963 53.084 92.3497C65.542 92.6434 79.0392 88.6445 86.1363 78.4031C88.2537 75.3535 89.7056 71.8858 90.8336 68.3612C93.3651 60.4951 94.3426 51.8534 91.8177 43.9789C87.2847 29.8471 75.6149 18.358 60.5123 16.951C45.9633 15.6037 30.9283 21.818 23.2665 34.5859C21.0363 38.2961 19.5207 42.4068 18.6796 46.6416L18.6947 46.6655Z"/>
<path stroke-width="1.99561" stroke="#2A3246" d="M18.6947 46.6655C16.3741 58.3311 19.6299 70.8831 26.9035 80.2864C29.0068 83.0069 31.4572 85.5021 34.3443 87.3936C39.8199 90.9897 46.536 92.1963 53.084 92.3497C65.542 92.6434 79.0392 88.6445 86.1363 78.4031C88.2537 75.3535 89.7056 71.8858 90.8336 68.3612C93.3651 60.4951 94.3426 51.8534 91.8177 43.9789C87.2847 29.8471 75.6149 18.358 60.5123 16.951C45.9633 15.6037 30.9283 21.818 23.2665 34.5859C21.0363 38.2961 19.5207 42.4068 18.6796 46.6416L18.6947 46.6655Z"/>
<path stroke-width="1.99561" stroke-opacity="0.2" stroke="black" d="M18.6947 46.6655C16.3741 58.3311 19.6299 70.8831 26.9035 80.2864C29.0068 83.0069 31.4572 85.5021 34.3443 87.3936C39.8199 90.9897 46.536 92.1963 53.084 92.3497C65.542 92.6434 79.0392 88.6445 86.1363 78.4031C88.2537 75.3535 89.7056 71.8858 90.8336 68.3612C93.3651 60.4951 94.3426 51.8534 91.8177 43.9789C87.2847 29.8471 75.6149 18.358 60.5123 16.951C45.9633 15.6037 30.9283 21.818 23.2665 34.5859C21.0363 38.2961 19.5207 42.4068 18.6796 46.6416L18.6947 46.6655Z"/>
<path fill="#FB693E" d="M37.1098 52.0209C35.4575 50.2098 34.3841 47.8767 34.0807 45.4424C33.9233 44.1885 33.9857 42.8506 34.669 41.7498C35.0479 41.1356 35.6371 40.6333 36.3315 40.4401C37.1677 40.212 38.0663 40.4466 38.8601 40.7952C39.6846 41.1616 40.9576 42.1598 41.8948 42.071C43.0459 41.9653 44.0077 40.1151 45.0561 39.6004C45.8197 39.2261 46.7252 39.1529 47.542 39.3998C48.7096 39.7529 49.4183 40.6244 49.7948 41.7446C50.4352 43.6435 50.2953 45.7483 49.6708 47.6523C49.0463 49.5562 47.9557 51.2781 46.7181 52.8569C45.6167 54.2605 44.0993 56.0289 42.156 55.3419C40.2127 54.6549 38.4776 53.5158 37.1139 52.0205L37.1098 52.0209Z"/>
<path stroke-width="1.99561" stroke="#2A3246" d="M37.1098 52.0209C35.4575 50.2098 34.3841 47.8767 34.0807 45.4424C33.9233 44.1885 33.9857 42.8506 34.669 41.7498C35.0479 41.1356 35.6371 40.6333 36.3315 40.4401C37.1677 40.212 38.0663 40.4466 38.8601 40.7952C39.6846 41.1616 40.9576 42.1598 41.8948 42.071C43.0459 41.9653 44.0077 40.1151 45.0561 39.6004C45.8197 39.2261 46.7252 39.1529 47.542 39.3998C48.7096 39.7529 49.4183 40.6244 49.7948 41.7446C50.4352 43.6435 50.2953 45.7483 49.6708 47.6523C49.0463 49.5562 47.9557 51.2781 46.7181 52.8569C45.6167 54.2605 44.0993 56.0289 42.156 55.3419C40.2127 54.6549 38.4776 53.5158 37.1139 52.0205L37.1098 52.0209Z"/>
<path stroke-width="1.99561" stroke-opacity="0.2" stroke="black" d="M37.1098 52.0209C35.4575 50.2098 34.3841 47.8767 34.0807 45.4424C33.9233 44.1885 33.9857 42.8506 34.669 41.7498C35.0479 41.1356 35.6371 40.6333 36.3315 40.4401C37.1677 40.212 38.0663 40.4466 38.8601 40.7952C39.6846 41.1616 40.9576 42.1598 41.8948 42.071C43.0459 41.9653 44.0077 40.1151 45.0561 39.6004C45.8197 39.2261 46.7252 39.1529 47.542 39.3998C48.7096 39.7529 49.4183 40.6244 49.7948 41.7446C50.4352 43.6435 50.2953 45.7483 49.6708 47.6523C49.0463 49.5562 47.9557 51.2781 46.7181 52.8569C45.6167 54.2605 44.0993 56.0289 42.156 55.3419C40.2127 54.6549 38.4776 53.5158 37.1139 52.0205L37.1098 52.0209Z"/>
<path fill="#FB693E" d="M61.9438 49.56C60.2915 47.7489 59.2181 45.4158 58.9147 42.9815C58.7572 41.7276 58.8197 40.3896 59.503 39.2889C59.8819 38.6747 60.471 38.1724 61.1655 37.9791C62.0017 37.7511 62.9003 37.9856 63.6941 38.3343C64.5186 38.7006 65.7916 39.6988 66.7288 39.6101C67.8799 39.5043 68.8416 37.6541 69.8901 37.1395C70.6537 36.7651 71.5592 36.692 72.376 36.9388C73.5436 37.2919 74.2523 38.1635 74.6288 39.2837C75.2692 41.1826 75.1292 43.2874 74.5047 45.1913C73.8802 47.0953 72.7897 48.8172 71.5521 50.396C70.4507 51.7996 68.9333 53.5679 66.9899 52.881C65.0466 52.194 63.3116 51.0549 61.9479 49.5596L61.9438 49.56Z"/>
<path stroke-width="1.99561" stroke="#2A3246" d="M61.9438 49.56C60.2915 47.7489 59.2181 45.4158 58.9147 42.9815C58.7572 41.7276 58.8197 40.3896 59.503 39.2889C59.8819 38.6747 60.471 38.1724 61.1655 37.9791C62.0017 37.7511 62.9003 37.9856 63.6941 38.3343C64.5186 38.7006 65.7916 39.6988 66.7288 39.6101C67.8799 39.5043 68.8416 37.6541 69.8901 37.1395C70.6537 36.7651 71.5592 36.692 72.376 36.9388C73.5436 37.2919 74.2523 38.1635 74.6288 39.2837C75.2692 41.1826 75.1292 43.2874 74.5047 45.1913C73.8802 47.0953 72.7897 48.8172 71.5521 50.396C70.4507 51.7996 68.9333 53.5679 66.9899 52.881C65.0466 52.194 63.3116 51.0549 61.9479 49.5596L61.9438 49.56Z"/>
<path stroke-width="1.99561" stroke-opacity="0.2" stroke="black" d="M61.9438 49.56C60.2915 47.7489 59.2181 45.4158 58.9147 42.9815C58.7572 41.7276 58.8197 40.3896 59.503 39.2889C59.8819 38.6747 60.471 38.1724 61.1655 37.9791C62.0017 37.7511 62.9003 37.9856 63.6941 38.3343C64.5186 38.7006 65.7916 39.6988 66.7288 39.6101C67.8799 39.5043 68.8416 37.6541 69.8901 37.1395C70.6537 36.7651 71.5592 36.692 72.376 36.9388C73.5436 37.2919 74.2523 38.1635 74.6288 39.2837C75.2692 41.1826 75.1292 43.2874 74.5047 45.1913C73.8802 47.0953 72.7897 48.8172 71.5521 50.396C70.4507 51.7996 68.9333 53.5679 66.9899 52.881C65.0466 52.194 63.3116 51.0549 61.9479 49.5596L61.9438 49.56Z"/>
<path stroke-linecap="round" stroke-width="1.99561" stroke="#2A3246" d="M37.2742 68.1746C37.3217 66.867 38.0686 65.6081 39.1921 64.9429C40.3157 64.2777 41.7767 64.2237 42.9467 64.8069"/>
<path stroke-linecap="round" stroke-width="1.99561" stroke-opacity="0.2" stroke="black" d="M37.2742 68.1746C37.3217 66.867 38.0686 65.6081 39.1921 64.9429C40.3157 64.2777 41.7767 64.2237 42.9467 64.8069"/>
<path stroke-linecap="round" stroke-width="1.99561" stroke="#2A3246" d="M74.9755 64.4382C74.6728 63.1698 73.6933 62.0819 72.4611 61.6502C71.2289 61.2184 69.7857 61.4522 68.7528 62.2537"/>
<path stroke-linecap="round" stroke-width="1.99561" stroke-opacity="0.2" stroke="black" d="M74.9755 64.4382C74.6728 63.1698 73.6933 62.0819 72.4611 61.6502C71.2289 61.2184 69.7857 61.4522 68.7528 62.2537"/>
<path stroke-linecap="round" stroke-width="1.99561" stroke="#2A3246" d="M41.2051 68.4028C43.3564 74.491 50.169 78.0471 56.6235 77.9432C60.1406 77.8853 63.7005 76.8833 66.5043 74.7578C69.3082 72.6322 71.2869 69.3264 71.4514 65.8098"/>
<path stroke-linecap="round" stroke-width="1.99561" stroke-opacity="0.2" stroke="black" d="M41.2051 68.4028C43.3564 74.491 50.169 78.0471 56.6235 77.9432C60.1406 77.8853 63.7005 76.8833 66.5043 74.7578C69.3082 72.6322 71.2869 69.3264 71.4514 65.8098"/>
</svg>