<svg xmlns="http://www.w3.org/2000/svg" width="202" height="213" viewBox="0 0 202 213" fill="none">
<path d="M128.152 100.524C128.227 100.564 128.314 100.61 128.388 100.65C131.178 101.913 136.932 95.4877 139.119 93.8344C143.548 90.4756 147.971 87.13 152.413 83.7779C159.316 78.5584 166.453 73.7266 172.893 67.9804C174.063 66.9481 175.829 67.8765 175.707 69.4854C175.653 70.1459 175.606 70.6953 175.51 71.0218C174.976 72.9026 174.145 74.657 173.462 76.491C171.526 81.6601 169.839 86.9617 168.034 92.184C164.482 102.413 160.93 112.642 157.365 122.864C150.165 143.551 142.941 164.224 135.754 184.917C134.076 189.78 132.497 194.697 131.16 199.661C129.67 205.166 126.779 205.277 122.59 202.905C117.256 199.871 111.778 197.072 106.368 194.194L14.9667 145.298C7.76617 141.446 7.5622 141.255 11.5231 134.281C27.2414 106.548 43.1519 78.9007 58.9197 51.1938C63.9241 42.4145 68.6436 33.45 73.3444 24.4918C74.1059 23.0445 76.1744 23.3468 76.5124 24.972C77.0132 27.39 77.6069 29.8742 77.6887 30.7058C78.1313 35.4726 78.5677 40.2197 79.0103 44.9865C79.8773 54.4284 80.763 63.8639 81.63 73.3058C81.6883 73.9278 82.0394 74.4603 82.5847 74.752C83.2291 75.0967 84.0071 74.9713 84.5202 74.4579C92.3033 66.7384 100.086 59.0189 107.876 51.2863C112.256 46.9326 116.511 41.5442 121.209 36.9833C123.117 35.1317 126.04 35.0539 128.062 36.7758C130.981 39.2566 129.766 43.7108 129.539 47.0857C129.162 52.7106 128.965 58.3498 128.625 63.9945C128.222 70.6727 127.795 77.3376 127.404 84.0224C127.202 87.5415 124.603 98.4119 128.177 100.537L128.152 100.524Z" fill="#FEE358"/>
<path d="M128.152 100.524C128.227 100.564 128.314 100.61 128.388 100.65C131.178 101.913 136.932 95.4877 139.119 93.8344C143.548 90.4756 147.971 87.13 152.413 83.7779C159.316 78.5584 166.453 73.7266 172.893 67.9804C174.063 66.9481 175.829 67.8765 175.707 69.4854C175.653 70.1459 175.606 70.6953 175.51 71.0218C174.976 72.9026 174.145 74.657 173.462 76.491C171.526 81.6601 169.839 86.9617 168.034 92.184C164.482 102.413 160.93 112.642 157.365 122.864C150.165 143.551 142.941 164.224 135.754 184.917C134.076 189.78 132.497 194.697 131.16 199.661C129.67 205.166 126.779 205.277 122.59 202.905C117.256 199.871 111.778 197.072 106.368 194.194L14.9667 145.298C7.76617 141.446 7.5622 141.255 11.5231 134.281C27.2414 106.548 43.1519 78.9007 58.9197 51.1938C63.9241 42.4145 68.6436 33.45 73.3444 24.4918C74.1059 23.0445 76.1744 23.3468 76.5124 24.972C77.0132 27.39 77.6069 29.8742 77.6887 30.7058C78.1313 35.4726 78.5677 40.2197 79.0103 44.9865C79.8773 54.4284 80.763 63.8639 81.63 73.3058C81.6883 73.9278 82.0394 74.4603 82.5847 74.752C83.2291 75.0967 84.0071 74.9713 84.5202 74.4579C92.3033 66.7384 100.086 59.0189 107.876 51.2863C112.256 46.9326 116.511 41.5442 121.209 36.9833C123.117 35.1317 126.04 35.0539 128.062 36.7758C130.981 39.2566 129.766 43.7108 129.539 47.0857C129.162 52.7106 128.965 58.3498 128.625 63.9945C128.222 70.6727 127.795 77.3376 127.404 84.0224C127.202 87.5415 124.603 98.4119 128.177 100.537L128.152 100.524Z" stroke="#2A3246" stroke-width="2.97374"/>
<path d="M128.152 100.524C128.227 100.564 128.314 100.61 128.388 100.65C131.178 101.913 136.932 95.4877 139.119 93.8344C143.548 90.4756 147.971 87.13 152.413 83.7779C159.316 78.5584 166.453 73.7266 172.893 67.9804C174.063 66.9481 175.829 67.8765 175.707 69.4854C175.653 70.1459 175.606 70.6953 175.51 71.0218C174.976 72.9026 174.145 74.657 173.462 76.491C171.526 81.6601 169.839 86.9617 168.034 92.184C164.482 102.413 160.93 112.642 157.365 122.864C150.165 143.551 142.941 164.224 135.754 184.917C134.076 189.78 132.497 194.697 131.16 199.661C129.67 205.166 126.779 205.277 122.59 202.905C117.256 199.871 111.778 197.072 106.368 194.194L14.9667 145.298C7.76617 141.446 7.5622 141.255 11.5231 134.281C27.2414 106.548 43.1519 78.9007 58.9197 51.1938C63.9241 42.4145 68.6436 33.45 73.3444 24.4918C74.1059 23.0445 76.1744 23.3468 76.5124 24.972C77.0132 27.39 77.6069 29.8742 77.6887 30.7058C78.1313 35.4726 78.5677 40.2197 79.0103 44.9865C79.8773 54.4284 80.763 63.8639 81.63 73.3058C81.6883 73.9278 82.0394 74.4603 82.5847 74.752C83.2291 75.0967 84.0071 74.9713 84.5202 74.4579C92.3033 66.7384 100.086 59.0189 107.876 51.2863C112.256 46.9326 116.511 41.5442 121.209 36.9833C123.117 35.1317 126.04 35.0539 128.062 36.7758C130.981 39.2566 129.766 43.7108 129.539 47.0857C129.162 52.7106 128.965 58.3498 128.625 63.9945C128.222 70.6727 127.795 77.3376 127.404 84.0224C127.202 87.5415 124.603 98.4119 128.177 100.537L128.152 100.524Z" stroke="black" stroke-opacity="0.2" stroke-width="2.97374"/>
<path d="M53.7937 127.933L51.4636 126.687L56.3748 114.236L58.2422 115.235L54.9863 122.837C54.4898 123.994 54.1393 124.72 53.8866 125.243L54.0519 125.332C54.2314 125.003 54.5581 124.456 55.3682 123.381L58.5677 119.168L60.2202 120.052L58.8716 125.255C58.5242 126.577 58.2967 127.178 58.1502 127.524L58.3154 127.613C58.5681 127.089 58.9186 126.364 59.5143 125.259L63.4311 118.011L65.2985 119.01L58.6521 130.532L56.3055 129.277L57.6956 124.117C57.9784 123.057 58.3115 122.153 58.5637 121.544L58.3984 121.456C58.0801 122.029 57.5818 122.845 56.9519 123.719L53.7937 127.933ZM74.8356 124.112L74.0531 125.732L71.3099 124.264L67.0878 133.006L69.831 134.474L69.0486 136.094L61.546 132.08L62.3285 130.46L65.0552 131.919L69.2773 123.177L66.5506 121.718L67.3331 120.098L74.8356 124.112ZM79.7787 126.756L79.2903 135.733C79.2289 136.592 79.1174 137.339 79.037 137.721L79.1031 137.756C79.2653 137.248 79.5501 136.572 79.7865 136.083L83.3647 128.674L85.2651 129.691L79.478 141.673L77.2967 140.506L77.7414 131.06C77.7867 130.277 77.9468 129.386 77.9706 129.208L77.888 129.164C77.7666 129.587 77.5388 130.145 77.3269 130.584L73.5124 138.482L71.6119 137.465L77.399 125.483L79.7787 126.756ZM90.0264 132.238L89.538 141.215C89.4766 142.074 89.3651 142.821 89.2847 143.203L89.3508 143.238C89.513 142.73 89.7978 142.055 90.0342 141.565L93.6124 134.156L95.5128 135.173L89.7257 147.155L87.5444 145.988L87.9891 136.542C88.0344 135.76 88.1945 134.868 88.2183 134.69L88.1357 134.646C88.0143 135.069 87.7865 135.627 87.5746 136.066L83.76 143.964L81.8596 142.947L87.6467 130.965L90.0264 132.238ZM98.324 136.677L105.397 140.461L104.574 142.165L99.5334 139.469L97.9359 142.777L102.695 145.323L101.888 146.993L97.129 144.447L95.3928 148.042L100.549 150.8L99.7255 152.505L92.537 148.659L98.324 136.677ZM110.849 158.455L108.618 157.262L108.627 151.087L106.826 150.123L104.454 155.034L102.421 153.947L108.208 141.965L112.207 144.104C114.785 145.483 115.628 147.569 114.528 149.848C113.795 151.366 112.439 152.064 110.781 151.793L110.849 158.455ZM111.251 145.61L109.466 144.655L107.543 148.638L109.328 149.593C110.699 150.327 111.769 150.007 112.388 148.724C113.008 147.442 112.623 146.344 111.251 145.61Z" fill="#2A3246"/>
<path d="M53.7937 127.933L51.4636 126.687L56.3748 114.236L58.2422 115.235L54.9863 122.837C54.4898 123.994 54.1393 124.72 53.8866 125.243L54.0519 125.332C54.2314 125.003 54.5581 124.456 55.3682 123.381L58.5677 119.168L60.2202 120.052L58.8716 125.255C58.5242 126.577 58.2967 127.178 58.1502 127.524L58.3154 127.613C58.5681 127.089 58.9186 126.364 59.5143 125.259L63.4311 118.011L65.2985 119.01L58.6521 130.532L56.3055 129.277L57.6956 124.117C57.9784 123.057 58.3115 122.153 58.5637 121.544L58.3984 121.456C58.0801 122.029 57.5818 122.845 56.9519 123.719L53.7937 127.933ZM74.8356 124.112L74.0531 125.732L71.3099 124.264L67.0878 133.006L69.831 134.474L69.0486 136.094L61.546 132.08L62.3285 130.46L65.0552 131.919L69.2773 123.177L66.5506 121.718L67.3331 120.098L74.8356 124.112ZM79.7787 126.756L79.2903 135.733C79.2289 136.592 79.1174 137.339 79.037 137.721L79.1031 137.756C79.2653 137.248 79.5501 136.572 79.7865 136.083L83.3647 128.674L85.2651 129.691L79.478 141.673L77.2967 140.506L77.7414 131.06C77.7867 130.277 77.9468 129.386 77.9706 129.208L77.888 129.164C77.7666 129.587 77.5388 130.145 77.3269 130.584L73.5124 138.482L71.6119 137.465L77.399 125.483L79.7787 126.756ZM90.0264 132.238L89.538 141.215C89.4766 142.074 89.3651 142.821 89.2847 143.203L89.3508 143.238C89.513 142.73 89.7978 142.055 90.0342 141.565L93.6124 134.156L95.5128 135.173L89.7257 147.155L87.5444 145.988L87.9891 136.542C88.0344 135.76 88.1945 134.868 88.2183 134.69L88.1357 134.646C88.0143 135.069 87.7865 135.627 87.5746 136.066L83.76 143.964L81.8596 142.947L87.6467 130.965L90.0264 132.238ZM98.324 136.677L105.397 140.461L104.574 142.165L99.5334 139.469L97.9359 142.777L102.695 145.323L101.888 146.993L97.129 144.447L95.3928 148.042L100.549 150.8L99.7255 152.505L92.537 148.659L98.324 136.677ZM110.849 158.455L108.618 157.262L108.627 151.087L106.826 150.123L104.454 155.034L102.421 153.947L108.208 141.965L112.207 144.104C114.785 145.483 115.628 147.569 114.528 149.848C113.795 151.366 112.439 152.064 110.781 151.793L110.849 158.455ZM111.251 145.61L109.466 144.655L107.543 148.638L109.328 149.593C110.699 150.327 111.769 150.007 112.388 148.724C113.008 147.442 112.623 146.344 111.251 145.61Z" fill="black" fill-opacity="0.2"/>
</svg>