<svg width="51" height="50" viewBox="0 0 51 50" fill="none" xmlns="http://www.w3.org/2000/svg">
                        <path d="M25.6769 -1.08795e-06C29.5072 0.0340335 33.3259 0.226901 37.1856 0.538908C39.23 0.703421 41.2275 1.21398 43.1427 2.03088C46.597 3.50015 48.5651 6.29687 49.552 9.98424C50.2276 12.503 50.5743 15.0842 50.6506 17.688C50.7681 21.8576 50.821 26.0271 50.7681 30.1967C50.727 33.6174 50.4333 37.0212 49.5638 40.3511C48.3888 44.8554 45.6336 47.6011 41.3861 48.7753C38.5956 49.5468 35.7522 49.8872 32.8911 49.9383C28.0856 50.0177 23.2741 50.0234 18.4685 49.9383C15.584 49.8872 12.723 49.5185 9.92657 48.6732C5.84359 47.4365 3.26458 44.6512 2.072 40.3682C1.3024 37.5941 0.914657 34.752 0.855909 31.8815C0.767787 27.3602 0.761912 22.8333 0.855908 18.312C0.920531 15.2884 1.32002 12.2931 2.18362 9.38292C3.45845 5.08855 6.21372 2.49039 10.2732 1.32745C12.8287 0.595649 15.443 0.289314 18.0749 0.158836C20.6246 0.0283614 23.1507 -0.0170336 25.6769 0.00565992L25.6769 -1.08795e-06Z" fill="#E8DDCB"></path>
                      </svg>