<svg xmlns="http://www.w3.org/2000/svg" width="121" height="115" viewBox="0 0 121 115" fill="none">
<path d="M39.8614 47.3689C37.4926 38.9736 37.651 35.5028 38.3259 25.2337" stroke="#2A3246" stroke-width="1.74796" stroke-linecap="round"/>
<path d="M39.8614 47.3689C37.4926 38.9736 37.651 35.5028 38.3259 25.2337" stroke="black" stroke-opacity="0.2" stroke-width="1.74796" stroke-linecap="round"/>
<path d="M43.3033 62.8642C43.2675 62.9257 43.2237 62.9832 43.1725 63.0354L43.156 63.0523C42.9081 63.3048 42.5436 63.3751 42.2305 63.2598C38.4037 62.696 33.8755 61.3318 29.6649 59.3666C25.3909 57.3718 21.3674 54.7221 18.7426 51.5876L18.7416 51.5864C15.3517 47.5233 13.1908 42.2233 12.9566 36.8113L43.3033 62.8642ZM43.3033 62.8642C43.5679 62.4429 43.4666 61.9818 43.3809 61.7411C43.2755 61.445 43.0885 61.1557 42.9023 60.905C42.5207 60.3912 41.9595 59.8012 41.4108 59.2459C41.2036 59.0362 40.9986 58.8318 40.7996 58.6334C40.4501 58.2849 40.1193 57.9551 39.8293 57.649C39.6049 57.4122 39.4253 57.2106 39.2974 57.0476C39.1821 56.9008 39.1505 56.8364 39.1487 56.8372C39.1485 56.8373 39.1488 56.8385 39.1494 56.8407C38.5977 55.0462 37.7848 53.6525 36.6944 52.5019C35.6104 51.3583 34.2842 50.4889 32.757 49.7011C29.7692 48.1599 26.8676 46.6599 24.6737 44.33C22.491 42.0121 21.1634 38.6963 21.8808 35.72C22.0822 34.9091 22.408 34.2257 22.8968 33.7623C23.7187 33.0134 25.0365 32.8921 26.275 33.3247C27.5186 33.759 28.5857 34.662 29.7728 35.6747C30.4631 36.2727 31.4943 36.4824 32.3586 36.4061C33.2004 36.3318 34.2922 35.9333 34.6622 34.8509L34.6625 34.8499C35.6646 31.9062 34.0052 29.2401 31.9728 27.3318C29.9122 25.3971 27.2048 23.9706 25.394 23.4134L25.3912 23.4126C23.0139 22.6899 20.2929 22.5859 17.9327 23.7617L17.9314 23.7623C15.5367 24.96 14.2557 27.2012 13.5952 29.5885C12.9355 31.9729 12.8609 34.6129 12.9566 36.811L43.3033 62.8642ZM39.1535 56.8541L39.1515 56.8475C39.1521 56.8494 39.1528 56.8516 39.1535 56.8541Z" fill="#FDCA1E"/>
<path d="M43.3033 62.8642C43.2675 62.9257 43.2237 62.9832 43.1725 63.0354L43.156 63.0523C42.9081 63.3048 42.5436 63.3751 42.2305 63.2598C38.4037 62.696 33.8755 61.3318 29.6649 59.3666C25.3909 57.3718 21.3674 54.7221 18.7426 51.5876L18.7416 51.5864C15.3517 47.5233 13.1908 42.2233 12.9566 36.8113L43.3033 62.8642ZM43.3033 62.8642C43.5679 62.4429 43.4666 61.9818 43.3809 61.7411C43.2755 61.445 43.0885 61.1557 42.9023 60.905C42.5207 60.3912 41.9595 59.8012 41.4108 59.2459C41.2036 59.0362 40.9986 58.8318 40.7996 58.6334C40.4501 58.2849 40.1193 57.9551 39.8293 57.649C39.6049 57.4122 39.4253 57.2106 39.2974 57.0476C39.1821 56.9008 39.1505 56.8364 39.1487 56.8372C39.1485 56.8373 39.1488 56.8385 39.1494 56.8407C38.5977 55.0462 37.7848 53.6525 36.6944 52.5019C35.6104 51.3583 34.2842 50.4889 32.757 49.7011C29.7692 48.1599 26.8676 46.6599 24.6737 44.33C22.491 42.0121 21.1634 38.6963 21.8808 35.72C22.0822 34.9091 22.408 34.2257 22.8968 33.7623C23.7187 33.0134 25.0365 32.8921 26.275 33.3247C27.5186 33.759 28.5857 34.662 29.7728 35.6747C30.4631 36.2727 31.4943 36.4824 32.3586 36.4061C33.2004 36.3318 34.2922 35.9333 34.6622 34.8509L34.6625 34.8499C35.6646 31.9062 34.0052 29.2401 31.9728 27.3318C29.9122 25.3971 27.2048 23.9706 25.394 23.4134L25.3912 23.4126C23.0139 22.6899 20.2929 22.5859 17.9327 23.7617L17.9314 23.7623C15.5367 24.96 14.2557 27.2012 13.5952 29.5885C12.9355 31.9729 12.8609 34.6129 12.9566 36.811L43.3033 62.8642ZM39.1535 56.8541L39.1515 56.8475C39.1521 56.8494 39.1528 56.8516 39.1535 56.8541Z" stroke="#2A3246" stroke-width="1.74796" stroke-linecap="round" stroke-linejoin="round"/>
<path d="M43.3033 62.8642C43.2675 62.9257 43.2237 62.9832 43.1725 63.0354L43.156 63.0523C42.9081 63.3048 42.5436 63.3751 42.2305 63.2598C38.4037 62.696 33.8755 61.3318 29.6649 59.3666C25.3909 57.3718 21.3674 54.7221 18.7426 51.5876L18.7416 51.5864C15.3517 47.5233 13.1908 42.2233 12.9566 36.8113L43.3033 62.8642ZM43.3033 62.8642C43.5679 62.4429 43.4666 61.9818 43.3809 61.7411C43.2755 61.445 43.0885 61.1557 42.9023 60.905C42.5207 60.3912 41.9595 59.8012 41.4108 59.2459C41.2036 59.0362 40.9986 58.8318 40.7996 58.6334C40.4501 58.2849 40.1193 57.9551 39.8293 57.649C39.6049 57.4122 39.4253 57.2106 39.2974 57.0476C39.1821 56.9008 39.1505 56.8364 39.1487 56.8372C39.1485 56.8373 39.1488 56.8385 39.1494 56.8407C38.5977 55.0462 37.7848 53.6525 36.6944 52.5019C35.6104 51.3583 34.2842 50.4889 32.757 49.7011C29.7692 48.1599 26.8676 46.6599 24.6737 44.33C22.491 42.0121 21.1634 38.6963 21.8808 35.72C22.0822 34.9091 22.408 34.2257 22.8968 33.7623C23.7187 33.0134 25.0365 32.8921 26.275 33.3247C27.5186 33.759 28.5857 34.662 29.7728 35.6747C30.4631 36.2727 31.4943 36.4824 32.3586 36.4061C33.2004 36.3318 34.2922 35.9333 34.6622 34.8509L34.6625 34.8499C35.6646 31.9062 34.0052 29.2401 31.9728 27.3318C29.9122 25.3971 27.2048 23.9706 25.394 23.4134L25.3912 23.4126C23.0139 22.6899 20.2929 22.5859 17.9327 23.7617L17.9314 23.7623C15.5367 24.96 14.2557 27.2012 13.5952 29.5885C12.9355 31.9729 12.8609 34.6129 12.9566 36.811L43.3033 62.8642ZM39.1535 56.8541L39.1515 56.8475C39.1521 56.8494 39.1528 56.8516 39.1535 56.8541Z" stroke="black" stroke-opacity="0.2" stroke-width="1.74796" stroke-linecap="round" stroke-linejoin="round"/>
<path d="M82.5311 62.3013C82.4392 62.5395 82.3259 62.9975 82.5794 63.4262C82.6137 63.4887 82.6559 63.5475 82.7057 63.6011L82.7218 63.6184C82.963 63.8779 83.3256 63.9586 83.6416 63.8523C87.4816 63.3981 92.0436 62.1639 96.3038 60.3198C100.628 58.4479 104.719 55.9141 107.425 52.8558L107.426 52.8546C110.92 48.8899 113.218 43.6535 113.593 38.2501C113.746 36.0555 113.74 33.4144 113.143 31.012C112.544 28.6067 111.322 26.3298 108.96 25.0641L108.958 25.0634C106.63 23.8206 103.907 23.8467 101.512 24.5012L101.509 24.502C99.6843 25.0072 96.9407 26.3558 94.8305 28.2309C92.7492 30.0804 91.021 32.6981 91.9462 35.6693L91.9465 35.6703C92.2881 36.7629 93.3692 37.1924 94.2087 37.2907C95.0707 37.3917 96.107 37.2116 96.8126 36.6336C98.0256 35.6551 99.1158 34.783 100.37 34.3844C101.62 33.9874 102.934 34.1463 103.736 34.9184C104.212 35.3955 104.52 36.0881 104.7 36.9044C105.34 39.9001 103.927 43.1767 101.684 45.4314C99.4308 47.6977 96.4912 49.1142 93.4644 50.5695C91.9173 51.3133 90.5689 52.1444 89.4556 53.2567C88.3342 54.377 87.4846 55.7491 86.8863 57.5304C86.8885 57.5239 86.8897 57.5204 86.8894 57.5202C86.8876 57.5194 86.8543 57.5828 86.7353 57.7263C86.6032 57.8855 86.4184 58.082 86.188 58.3122C85.89 58.6099 85.5508 58.9301 85.1923 59.2686C84.9883 59.4612 84.778 59.6597 84.5655 59.8633C84.0025 60.4028 83.4261 60.9765 83.0313 61.4792C82.8386 61.7245 82.6442 62.0083 82.5311 62.3013Z" fill="#FDCA1E"/>
<path d="M82.5311 62.3013C82.4392 62.5395 82.3259 62.9975 82.5794 63.4262C82.6137 63.4887 82.6559 63.5475 82.7057 63.6011L82.7218 63.6184C82.963 63.8779 83.3256 63.9586 83.6416 63.8523C87.4816 63.3981 92.0436 62.1639 96.3038 60.3198C100.628 58.4479 104.719 55.9141 107.425 52.8558L107.426 52.8546C110.92 48.8899 113.218 43.6535 113.593 38.2501C113.746 36.0555 113.74 33.4144 113.143 31.012C112.544 28.6067 111.322 26.3298 108.96 25.0641L108.958 25.0634C106.63 23.8206 103.907 23.8467 101.512 24.5012L101.509 24.502C99.6843 25.0072 96.9407 26.3558 94.8305 28.2309C92.7492 30.0804 91.021 32.6981 91.9462 35.6693L91.9465 35.6703C92.2881 36.7629 93.3692 37.1924 94.2087 37.2907C95.0707 37.3917 96.107 37.2116 96.8126 36.6336C98.0256 35.6551 99.1158 34.783 100.37 34.3844C101.62 33.9874 102.934 34.1463 103.736 34.9184C104.212 35.3955 104.52 36.0881 104.7 36.9044C105.34 39.9001 103.927 43.1767 101.684 45.4314C99.4308 47.6977 96.4912 49.1142 93.4644 50.5695C91.9173 51.3133 90.5689 52.1444 89.4556 53.2567C88.3342 54.377 87.4846 55.7491 86.8863 57.5304C86.8885 57.5239 86.8897 57.5204 86.8894 57.5202C86.8876 57.5194 86.8543 57.5828 86.7353 57.7263C86.6032 57.8855 86.4184 58.082 86.188 58.3122C85.89 58.6099 85.5508 58.9301 85.1923 59.2686C84.9883 59.4612 84.778 59.6597 84.5655 59.8633C84.0025 60.4028 83.4261 60.9765 83.0313 61.4792C82.8386 61.7245 82.6442 62.0083 82.5311 62.3013Z" stroke="#2A3246" stroke-width="1.74796" stroke-linecap="round" stroke-linejoin="round"/>
<path d="M82.5311 62.3013C82.4392 62.5395 82.3259 62.9975 82.5794 63.4262C82.6137 63.4887 82.6559 63.5475 82.7057 63.6011L82.7218 63.6184C82.963 63.8779 83.3256 63.9586 83.6416 63.8523C87.4816 63.3981 92.0436 62.1639 96.3038 60.3198C100.628 58.4479 104.719 55.9141 107.425 52.8558L107.426 52.8546C110.92 48.8899 113.218 43.6535 113.593 38.2501C113.746 36.0555 113.74 33.4144 113.143 31.012C112.544 28.6067 111.322 26.3298 108.96 25.0641L108.958 25.0634C106.63 23.8206 103.907 23.8467 101.512 24.5012L101.509 24.502C99.6843 25.0072 96.9407 26.3558 94.8305 28.2309C92.7492 30.0804 91.021 32.6981 91.9462 35.6693L91.9465 35.6703C92.2881 36.7629 93.3692 37.1924 94.2087 37.2907C95.0707 37.3917 96.107 37.2116 96.8126 36.6336C98.0256 35.6551 99.1158 34.783 100.37 34.3844C101.62 33.9874 102.934 34.1463 103.736 34.9184C104.212 35.3955 104.52 36.0881 104.7 36.9044C105.34 39.9001 103.927 43.1767 101.684 45.4314C99.4308 47.6977 96.4912 49.1142 93.4644 50.5695C91.9173 51.3133 90.5689 52.1444 89.4556 53.2567C88.3342 54.377 87.4846 55.7491 86.8863 57.5304C86.8885 57.5239 86.8897 57.5204 86.8894 57.5202C86.8876 57.5194 86.8543 57.5828 86.7353 57.7263C86.6032 57.8855 86.4184 58.082 86.188 58.3122C85.89 58.6099 85.5508 58.9301 85.1923 59.2686C84.9883 59.4612 84.778 59.6597 84.5655 59.8633C84.0025 60.4028 83.4261 60.9765 83.0313 61.4792C82.8386 61.7245 82.6442 62.0083 82.5311 62.3013Z" stroke="black" stroke-opacity="0.2" stroke-width="1.74796" stroke-linecap="round" stroke-linejoin="round"/>
<path d="M29.0755 20.0325C28.9957 20.1623 28.9524 20.3088 28.9469 20.4573C28.7759 20.9287 28.7709 21.391 28.7676 21.6881C28.7674 21.7058 28.7672 21.7229 28.767 21.7394L28.767 21.7451C28.7552 23.5759 28.7066 25.4467 28.6576 27.3361C28.5105 33.0056 28.359 38.8425 29.1841 44.2679C30.2946 51.5689 33.1862 58.2833 40.2673 63.1515L40.2694 63.1529C41.8157 64.2095 43.4653 65.1025 45.0664 65.9693C45.4028 66.1514 45.7371 66.3324 46.0678 66.5135C47.9939 67.5681 49.8258 68.6392 51.4446 70.0179C54.3887 72.5466 56.3975 76.4701 55.4975 80.2973C55.4956 80.3056 55.4938 80.3139 55.492 80.3223C55.4729 80.416 55.4551 80.4789 55.4386 80.5214C55.3977 80.5278 55.3383 80.5319 55.2562 80.5308C55.2506 80.5307 55.2451 80.5307 55.2395 80.5307C55.2353 80.5307 55.2311 80.5308 55.2268 80.5309C53.7047 80.5603 52.1828 80.5939 50.6622 80.6276L50.6526 80.6278L50.646 80.6279C49.1289 80.6615 47.6134 80.695 46.098 80.7243C45.9034 80.7215 45.3861 80.7187 44.9717 81.084C44.4919 81.4945 44.4564 82.0925 44.4517 82.3498C44.1762 86.0816 43.8558 89.7996 43.5348 93.5256C43.3491 95.6809 43.1631 97.8389 42.9855 100.004L42.9854 100.004L42.9845 100.018C42.9658 100.3 43.0834 100.516 43.1887 100.641C43.2845 100.755 43.3866 100.818 43.4374 100.847C43.5398 100.904 43.6319 100.928 43.6627 100.936C43.7403 100.956 43.8144 100.965 43.8567 100.97C43.954 100.981 44.0764 100.989 44.2081 100.994C44.4782 101.006 44.8644 101.012 45.3437 101.016C46.3056 101.022 47.6791 101.014 49.3312 100.996C52.637 100.959 57.0768 100.881 61.6115 100.79C70.6804 100.608 80.1415 100.376 81.6944 100.329L81.6956 100.329C81.8935 100.323 82.1956 100.308 82.4967 100.22C82.8036 100.13 83.1822 99.9435 83.4417 99.5477C83.7995 99.0236 83.7373 98.398 83.7111 98.1352L83.711 98.134C83.6616 97.468 83.6629 96.468 83.6644 95.2366C83.6648 94.9257 83.6652 94.6 83.6648 94.2611C83.6629 92.6027 83.6408 90.6812 83.4906 88.8175C83.3411 86.964 83.0612 85.1115 82.5196 83.6094C81.9883 82.1359 81.1265 80.7887 79.6735 80.3067C79.1203 80.12 78.5621 80.1123 78.1496 80.1067L78.11 80.1061C77.5731 80.0944 76.8968 80.1404 76.2069 80.1872C76.143 80.1916 76.0791 80.1959 76.0151 80.2002C75.236 80.2527 74.416 80.3032 73.6226 80.2938C72.8248 80.2845 72.1001 80.2145 71.5075 80.0464C70.9146 79.8782 70.5301 79.634 70.306 79.3315L70.3055 79.3308C70.1533 79.1257 70.0419 78.8033 70.0131 78.3361C69.9846 77.874 70.0412 77.333 70.1633 76.76C70.4083 75.6094 70.8876 74.4638 71.2612 73.8108C72.3755 71.868 74.3066 70.4923 76.3182 69.2629L76.3191 69.2623C77.9002 68.2935 79.607 67.5182 81.3747 66.7153C81.8576 66.496 82.3451 66.2746 82.8358 66.0466C85.0895 64.9995 87.3747 63.8274 89.3352 62.1208L89.3355 62.1205C94.348 57.7535 96.4447 50.7828 97.0584 44.2328L97.0585 44.2311C97.5478 38.8962 97.5656 33.4193 97.5832 28.0295C97.5897 26.0525 97.5961 24.0873 97.6257 22.145L97.6257 22.1431L97.6259 22.1334C97.6313 21.7215 97.6405 21.0143 97.2711 20.4112C97.0104 19.9768 96.6324 19.7174 96.288 19.5547C95.9519 19.3959 95.5967 19.3064 95.339 19.2435L95.3371 19.243C74.8327 14.2833 51.1184 10.9644 30.6595 18.9047C30.2382 19.0615 29.4993 19.343 29.0755 20.0325Z" fill="#FEE358"/>
<path d="M29.0755 20.0325C28.9957 20.1623 28.9524 20.3088 28.9469 20.4573C28.7759 20.9287 28.7709 21.391 28.7676 21.6881C28.7674 21.7058 28.7672 21.7229 28.767 21.7394L28.767 21.7451C28.7552 23.5759 28.7066 25.4467 28.6576 27.3361C28.5105 33.0056 28.359 38.8425 29.1841 44.2679C30.2946 51.5689 33.1862 58.2833 40.2673 63.1515L40.2694 63.1529C41.8157 64.2095 43.4653 65.1025 45.0664 65.9693C45.4028 66.1514 45.7371 66.3324 46.0678 66.5135C47.9939 67.5681 49.8258 68.6392 51.4446 70.0179C54.3887 72.5466 56.3975 76.4701 55.4975 80.2973C55.4956 80.3056 55.4938 80.3139 55.492 80.3223C55.4729 80.416 55.4551 80.4789 55.4386 80.5214C55.3977 80.5278 55.3383 80.5319 55.2562 80.5308C55.2506 80.5307 55.2451 80.5307 55.2395 80.5307C55.2353 80.5307 55.2311 80.5308 55.2268 80.5309C53.7047 80.5603 52.1828 80.5939 50.6622 80.6276L50.6526 80.6278L50.646 80.6279C49.1289 80.6615 47.6134 80.695 46.098 80.7243C45.9034 80.7215 45.3861 80.7187 44.9717 81.084C44.4919 81.4945 44.4564 82.0925 44.4517 82.3498C44.1762 86.0816 43.8558 89.7996 43.5348 93.5256C43.3491 95.6809 43.1631 97.8389 42.9855 100.004L42.9854 100.004L42.9845 100.018C42.9658 100.3 43.0834 100.516 43.1887 100.641C43.2845 100.755 43.3866 100.818 43.4374 100.847C43.5398 100.904 43.6319 100.928 43.6627 100.936C43.7403 100.956 43.8144 100.965 43.8567 100.97C43.954 100.981 44.0764 100.989 44.2081 100.994C44.4782 101.006 44.8644 101.012 45.3437 101.016C46.3056 101.022 47.6791 101.014 49.3312 100.996C52.637 100.959 57.0768 100.881 61.6115 100.79C70.6804 100.608 80.1415 100.376 81.6944 100.329L81.6956 100.329C81.8935 100.323 82.1956 100.308 82.4967 100.22C82.8036 100.13 83.1822 99.9435 83.4417 99.5477C83.7995 99.0236 83.7373 98.398 83.7111 98.1352L83.711 98.134C83.6616 97.468 83.6629 96.468 83.6644 95.2366C83.6648 94.9257 83.6652 94.6 83.6648 94.2611C83.6629 92.6027 83.6408 90.6812 83.4906 88.8175C83.3411 86.964 83.0612 85.1115 82.5196 83.6094C81.9883 82.1359 81.1265 80.7887 79.6735 80.3067C79.1203 80.12 78.5621 80.1123 78.1496 80.1067L78.11 80.1061C77.5731 80.0944 76.8968 80.1404 76.2069 80.1872C76.143 80.1916 76.0791 80.1959 76.0151 80.2002C75.236 80.2527 74.416 80.3032 73.6226 80.2938C72.8248 80.2845 72.1001 80.2145 71.5075 80.0464C70.9146 79.8782 70.5301 79.634 70.306 79.3315L70.3055 79.3308C70.1533 79.1257 70.0419 78.8033 70.0131 78.3361C69.9846 77.874 70.0412 77.333 70.1633 76.76C70.4083 75.6094 70.8876 74.4638 71.2612 73.8108C72.3755 71.868 74.3066 70.4923 76.3182 69.2629L76.3191 69.2623C77.9002 68.2935 79.607 67.5182 81.3747 66.7153C81.8576 66.496 82.3451 66.2746 82.8358 66.0466C85.0895 64.9995 87.3747 63.8274 89.3352 62.1208L89.3355 62.1205C94.348 57.7535 96.4447 50.7828 97.0584 44.2328L97.0585 44.2311C97.5478 38.8962 97.5656 33.4193 97.5832 28.0295C97.5897 26.0525 97.5961 24.0873 97.6257 22.145L97.6257 22.1431L97.6259 22.1334C97.6313 21.7215 97.6405 21.0143 97.2711 20.4112C97.0104 19.9768 96.6324 19.7174 96.288 19.5547C95.9519 19.3959 95.5967 19.3064 95.339 19.2435L95.3371 19.243C74.8327 14.2833 51.1184 10.9644 30.6595 18.9047C30.2382 19.0615 29.4993 19.343 29.0755 20.0325Z" stroke="#2A3246" stroke-width="1.74796" stroke-linecap="round" stroke-linejoin="round"/>
<path d="M29.0755 20.0325C28.9957 20.1623 28.9524 20.3088 28.9469 20.4573C28.7759 20.9287 28.7709 21.391 28.7676 21.6881C28.7674 21.7058 28.7672 21.7229 28.767 21.7394L28.767 21.7451C28.7552 23.5759 28.7066 25.4467 28.6576 27.3361C28.5105 33.0056 28.359 38.8425 29.1841 44.2679C30.2946 51.5689 33.1862 58.2833 40.2673 63.1515L40.2694 63.1529C41.8157 64.2095 43.4653 65.1025 45.0664 65.9693C45.4028 66.1514 45.7371 66.3324 46.0678 66.5135C47.9939 67.5681 49.8258 68.6392 51.4446 70.0179C54.3887 72.5466 56.3975 76.4701 55.4975 80.2973C55.4956 80.3056 55.4938 80.3139 55.492 80.3223C55.4729 80.416 55.4551 80.4789 55.4386 80.5214C55.3977 80.5278 55.3383 80.5319 55.2562 80.5308C55.2506 80.5307 55.2451 80.5307 55.2395 80.5307C55.2353 80.5307 55.2311 80.5308 55.2268 80.5309C53.7047 80.5603 52.1828 80.5939 50.6622 80.6276L50.6526 80.6278L50.646 80.6279C49.1289 80.6615 47.6134 80.695 46.098 80.7243C45.9034 80.7215 45.3861 80.7187 44.9717 81.084C44.4919 81.4945 44.4564 82.0925 44.4517 82.3498C44.1762 86.0816 43.8558 89.7996 43.5348 93.5256C43.3491 95.6809 43.1631 97.8389 42.9855 100.004L42.9854 100.004L42.9845 100.018C42.9658 100.3 43.0834 100.516 43.1887 100.641C43.2845 100.755 43.3866 100.818 43.4374 100.847C43.5398 100.904 43.6319 100.928 43.6627 100.936C43.7403 100.956 43.8144 100.965 43.8567 100.97C43.954 100.981 44.0764 100.989 44.2081 100.994C44.4782 101.006 44.8644 101.012 45.3437 101.016C46.3056 101.022 47.6791 101.014 49.3312 100.996C52.637 100.959 57.0768 100.881 61.6115 100.79C70.6804 100.608 80.1415 100.376 81.6944 100.329L81.6956 100.329C81.8935 100.323 82.1956 100.308 82.4967 100.22C82.8036 100.13 83.1822 99.9435 83.4417 99.5477C83.7995 99.0236 83.7373 98.398 83.7111 98.1352L83.711 98.134C83.6616 97.468 83.6629 96.468 83.6644 95.2366C83.6648 94.9257 83.6652 94.6 83.6648 94.2611C83.6629 92.6027 83.6408 90.6812 83.4906 88.8175C83.3411 86.964 83.0612 85.1115 82.5196 83.6094C81.9883 82.1359 81.1265 80.7887 79.6735 80.3067C79.1203 80.12 78.5621 80.1123 78.1496 80.1067L78.11 80.1061C77.5731 80.0944 76.8968 80.1404 76.2069 80.1872C76.143 80.1916 76.0791 80.1959 76.0151 80.2002C75.236 80.2527 74.416 80.3032 73.6226 80.2938C72.8248 80.2845 72.1001 80.2145 71.5075 80.0464C70.9146 79.8782 70.5301 79.634 70.306 79.3315L70.3055 79.3308C70.1533 79.1257 70.0419 78.8033 70.0131 78.3361C69.9846 77.874 70.0412 77.333 70.1633 76.76C70.4083 75.6094 70.8876 74.4638 71.2612 73.8108C72.3755 71.868 74.3066 70.4923 76.3182 69.2629L76.3191 69.2623C77.9002 68.2935 79.607 67.5182 81.3747 66.7153C81.8576 66.496 82.3451 66.2746 82.8358 66.0466C85.0895 64.9995 87.3747 63.8274 89.3352 62.1208L89.3355 62.1205C94.348 57.7535 96.4447 50.7828 97.0584 44.2328L97.0585 44.2311C97.5478 38.8962 97.5656 33.4193 97.5832 28.0295C97.5897 26.0525 97.5961 24.0873 97.6257 22.145L97.6257 22.1431L97.6259 22.1334C97.6313 21.7215 97.6405 21.0143 97.2711 20.4112C97.0104 19.9768 96.6324 19.7174 96.288 19.5547C95.9519 19.3959 95.5967 19.3064 95.339 19.2435L95.3371 19.243C74.8327 14.2833 51.1184 10.9644 30.6595 18.9047C30.2382 19.0615 29.4993 19.343 29.0755 20.0325Z" stroke="black" stroke-opacity="0.2" stroke-width="1.74796" stroke-linecap="round" stroke-linejoin="round"/>
<path d="M39.8614 47.3689C37.4926 38.9736 37.651 35.5028 38.3259 25.2337" stroke="#2A3246" stroke-width="1.74796" stroke-linecap="round"/>
<path d="M39.8614 47.3689C37.4926 38.9736 37.651 35.5028 38.3259 25.2337" stroke="black" stroke-opacity="0.2" stroke-width="1.74796" stroke-linecap="round"/>
</svg>